<svg xmlns="http://www.w3.org/2000/svg" width="258" height="246" style=""><rect id="backgroundrect" width="100%" height="100%" x="0" y="0" fill="none" stroke="none"/><g class="currentLayer" style=""><title>Layer 1</title><g id="_98_open_map" data-name="#98_open_map" class=""><path d="M257.98000000953675,219.55981303200358 H0.5000000095367485 a0.5,0.5 0 0 1 0,-1 H257.98000000953675 a0.5,0.5 0 0 1 0,1 z" fill="#d1d3d4" id="svg_1"/><path d="M119.56000000953674,180.94981303200356 a1,1 0 0 1 -1,-1 v-5.32 a1.92,1.92 0 0 0 -1.9100000000000001,-1.92 H95.50000000953673 a1.92,1.92 0 0 0 -1.9100000000000001,1.92 v5.32 a1,1 0 0 1 -2,0 v-5.32 a3.92,3.92 0 0 1 3.91,-3.92 h21.15 a3.92,3.92 0 0 1 3.91,3.92 v5.32 A1,1 0 0 1 119.56000000953674,180.94981303200356 z" fill="#d1d3d4" id="svg_2"/><rect x="63.10999512672424" y="179.94980875954263" width="85.94000244140625" height="60.59000015258789" rx="4.849999904632568" fill="#fff" id="svg_3"/><path d="M144.24000000953674,241.04981303200356 H67.96000000953674 a5.36,5.36 0 0 1 -5.35,-5.35 v-50.9 a5.36,5.36 0 0 1 5.35,-5.35 H144.24000000953674 a5.36,5.36 0 0 1 5.35,5.35 v50.9 A5.36,5.36 0 0 1 144.24000000953674,241.04981303200356 zm-76.23,-60.6 a4.36,4.36 0 0 0 -4.35,4.35 v50.9 a4.35,4.35 0 0 0 4.35,4.35 H144.24000000953674 a4.35,4.35 0 0 0 4.35,-4.35 v-50.9 a4.36,4.36 0 0 0 -4.35,-4.35 z" fill="#d1d3d4" id="svg_4"/><rect x="81.93999695777893" y="178.49981181130045" width="5.619999885559082" height="63.5" rx="1.9500000476837158" fill="#fff" id="svg_5"/><path d="M85.61000000953675,242.49981303200354 h-1.7200000000000002 a2.45,2.45 0 0 1 -2.45,-2.45 v-59.6 a2.45,2.45 0 0 1 2.45,-2.45 h1.7200000000000002 a2.45,2.45 0 0 1 2.45,2.45 v59.6 A2.45,2.45 0 0 1 85.61000000953675,242.49981303200354 zm-1.7200000000000002,-63.5 a1.45,1.45 0 0 0 -1.45,1.45 v59.6 a1.45,1.45 0 0 0 1.45,1.45 h1.7200000000000002 a1.45,1.45 0 0 0 1.45,-1.45 v-59.6 a1.45,1.45 0 0 0 -1.45,-1.45 z" fill="#d1d3d4" id="svg_6"/><rect x="125.65999817848206" y="178.49981181130045" width="5.619999885559082" height="63.5" rx="1.9500000476837158" fill="#fff" id="svg_7"/><path d="M129.33000000953675,242.49981303200354 h-1.7200000000000002 a2.45,2.45 0 0 1 -2.45,-2.45 v-59.6 a2.45,2.45 0 0 1 2.45,-2.45 h1.7200000000000002 a2.45,2.45 0 0 1 2.45,2.45 v59.6 A2.45,2.45 0 0 1 129.33000000953675,242.49981303200354 zm-1.7200000000000002,-63.5 a1.45,1.45 0 0 0 -1.45,1.45 v59.6 a1.45,1.45 0 0 0 1.45,1.45 h1.7200000000000002 a1.45,1.45 0 0 0 1.45,-1.45 v-59.6 a1.45,1.45 0 0 0 -1.45,-1.45 z" fill="#d1d3d4" id="svg_8"/><circle cx="102.24999451637268" cy="210.7398173044645" r="5.800000190734863" fill="#fff" id="svg_9"/><path d="M102.24000000953674,217.04981303200358 a6.3100000000000005,6.3100000000000005 0 1 1 6.3100000000000005,-6.3100000000000005 A6.3100000000000005,6.3100000000000005 0 0 1 102.24000000953674,217.04981303200358 zm0,-11.61 a5.3100000000000005,5.3100000000000005 0 1 0 5.3100000000000005,5.3 A5.3100000000000005,5.3100000000000005 0 0 0 102.24000000953674,205.43981303200357 z" fill="#d1d3d4" id="svg_10"/><rect x="116.31343955797581" y="197.43220460656477" width="18.579999923706044" height="9.999999999999995" transform="matrix(0.93,-0.36,0.36,0.93,-78.09,81.27) " fill="#fff" id="svg_11"/><path d="M104.42000000953675,234.78981303200356 a0.51,0.51 0 0 1 -0.47000000000000014,-0.3200000000000002 l-3.55,-9.35 a0.46,0.46 0 0 1 0,-0.38000000000000017 a0.5,0.5 0 0 1 0.28,-0.27 l17.36,-6.6 a0.5,0.5 0 0 1 0.6400000000000003,0.29000000000000015 l3.56,9.35 a0.5,0.5 0 0 1 0,0.38000000000000017 a0.51,0.51 0 0 1 -0.28,0.26 l-17.36,6.61 zM101.51000000953675,225.21981303200357 l3.2,8.42 l16.43,-6.25 l-3.2,-8.42 z" fill="#d1d3d4" id="svg_12"/><polygon points="121.57999423146248,199.12982241252018 107.6800003349781,202.03982607462956 104.76999667286873,188.14981142619206 121.57999423146248,199.12982241252018 " fill="#fff" id="svg_13"/><path d="M107.68000000953674,202.53981303200356 a0.5,0.5 0 0 1 -0.49000000000000016,-0.3900000000000002 L104.24000000953674,188.21981303200357 a0.51,0.51 0 0 1 0.21000000000000008,-0.52 a0.5,0.5 0 0 1 0.55,0 l16.81,11 a0.5,0.5 0 0 1 -0.17,0.91 l-13.9,2.91 zM105.51000000953675,189.21981303200357 l2.56,12.22 l12.23,-2.56 z" fill="#d1d3d4" id="svg_14"/><polygon points="229.4700165092945,238.23980776408268 225.13000491261482,241.9798285160358 221.6399841606617,239.41983095744206 220.080001860857,226.80981508830143 229.30000308156013,224.7998205814655 229.4700165092945,238.23980776408268 " fill="#fff" id="svg_15"/><path d="M229.30000000953675,224.79981303200358 l0.17,13.44 l-4.34,3.74 l-3.49,-2.56 l-1.56,-12.61 l9.22,-2 m0,-1 a0.7600000000000003,0.7600000000000003 0 0 0 -0.21000000000000008,0 l-9.22,2 a1,1 0 0 0 -0.78,1.1 l1.56,12.61 a1,1 0 0 0 0.4,0.6800000000000006 l3.49,2.56 a1,1 0 0 0 0.5900000000000003,0.2 a1,1 0 0 0 0.6600000000000005,-0.25 l4.33,-3.73 a1,1 0 0 0 0.35000000000000014,-0.77 l-0.17,-13.44 a1,1 0 0 0 -1,-1 z" fill="#231f20" id="svg_16"/><path d="M230.24000000953674,237.4398130320036 s-5.41,3.81 -9.32,0.6800000000000006 c0,0 -12.870000000000001,-1.15 -14.33,7.65 h23.8 z" fill="#231f20" id="svg_17"/><path d="M230.34000000953677,246.26981303200358 H206.54000000953675 a0.46,0.46 0 0 1 -0.38000000000000017,-0.18000000000000008 a0.46,0.46 0 0 1 -0.11000000000000004,-0.4 c1.52,-9.15 14.73,-8.07 14.86,-8.06 a0.54,0.54 0 0 1 0.27,0.11000000000000004 c3.5700000000000003,2.85 8.67,-0.6700000000000006 8.73,-0.7100000000000003 a0.5,0.5 0 0 1 0.78,0.4 l0.15000000000000008,8.33 a0.48000000000000015,0.48000000000000015 0 0 1 -0.15000000000000008,0.36000000000000015 A0.47000000000000014,0.47000000000000014 0 0 1 230.34000000953677,246.26981303200358 zm-23.19,-1 h22.68 l-0.12000000000000002,-6.95 c-1.6800000000000006,1 -5.76,2.7800000000000002 -9,0.29000000000000015 C219.33000000953672,238.52981303200357 208.88000000953673,238.11981303200355 207.15000000953677,245.26981303200358 z" fill="#231f20" id="svg_18"/><polygon points="185.00999453663826,238.23980776408268 181.20999148488045,241.9798285160358 177.71998599171638,239.41983095744206 176.1600036919117,226.80981508830143 186.41998293995857,224.7998205814655 185.00999453663826,238.23980776408268 " fill="#fff" id="svg_19"/><path d="M186.42000000953675,224.79981303200358 L185.01000000953675,238.21981303200357 l-3.8,3.74 l-3.49,-2.56 l-1.56,-12.61 l10.26,-2 m0,-1 l-0.2,0 l-10.25,2 a1,1 0 0 0 -0.8,1.1 l1.55,12.61 a1,1 0 0 0 0.41000000000000014,0.6800000000000006 l3.49,2.56 a1,1 0 0 0 0.5900000000000003,0.2 a1,1 0 0 0 0.7000000000000003,-0.29000000000000015 l3.8,-3.73 a1,1 0 0 0 0.30000000000000016,-0.6100000000000003 l1.4,-13.44 a1,1 0 0 0 -0.3200000000000002,-0.8400000000000003 a1,1 0 0 0 -0.6700000000000006,-0.27 zm0,2 z" fill="#231f20" id="svg_20"/><polygon points="226.38999941945076,118.7998205814655 231.54998782277107,231.4698187504108 217.93000796437263,231.3298041019733 199.330001860857,155.77981630900456 188.8999939262867,231.03982607462956 173.80999758839607,230.88983217814518 169.080001860857,120.07981936076237 226.38999941945076,118.7998205814655 " fill="#231f20" id="svg_21"/><path d="M231.55000000953675,231.95981303200358 h0 l-13.620000000000001,-0.13 a0.51,0.51 0 0 1 -0.48000000000000015,-0.38000000000000017 l-18,-73 l-10.07,72.7 a0.51,0.51 0 0 1 -0.5,0.43000000000000016 h0 l-15.1,-0.15000000000000008 a0.5,0.5 0 0 1 -0.49000000000000016,-0.48000000000000015 l-4.73,-110.81 a0.47000000000000014,0.47000000000000014 0 0 1 0.13,-0.36000000000000015 a0.48000000000000015,0.48000000000000015 0 0 1 0.35000000000000014,-0.1600000000000001 l57.32,-1.28 h0 a0.5,0.5 0 0 1 0.49000000000000016,0.48000000000000015 l5.17,112.66 a0.47000000000000014,0.47000000000000014 0 0 1 -0.14,0.37000000000000016 A0.48000000000000015,0.48000000000000015 0 0 1 231.55000000953675,231.95981303200358 zm-13.23,-1.13 l12.71,0.13 l-5.12,-111.65 l-56.32,1.25 l4.7,109.84 l14.18,0.14 l10.37,-74.83 a0.49000000000000016,0.49000000000000016 0 0 1 0.47000000000000014,-0.43000000000000016 a0.5,0.5 0 0 1 0.51,0.38000000000000017 z" fill="#231f20" id="svg_22"/><circle cx="193.8100073337555" cy="15.179812116476228" r="14.520000457763672" fill="#fff" id="svg_23"/><path d="M193.81000000953674,30.21981303200357 h-0.15000000000000008 a15.11,15.11 0 1 1 0.15000000000000008,0 zm0,-29 a14,14 0 0 0 -0.13,28 h0.14 a14,14 0 0 0 0.14,-28 z" fill="#231f20" id="svg_24"/><ellipse cx="358.940012216568" cy="308.2598253916227" rx="9.220000267028809" ry="19.719999313354492" transform="rotate(-77.58000183105469 94.62000274658202,265.1698303222656) " fill="#231f20" id="svg_25"/><path d="M200.05000000953675,26.779813032003574 a40.49,40.49 0 0 1 -8.58,-1 c-11.07,-2.44 -18.83,-8.52 -17.66,-13.84 s10.77,-7.58 21.84,-5.15 s18.83,8.53 17.65,13.85 C212.45000000953672,24.529813032003574 207.14000000953672,26.779813032003574 200.05000000953675,26.779813032003574 zm-13,-19.94 c-6.58,0 -11.55,2 -12.29,5.33 c-1,4.7 6.54,10.38 16.89,12.66 s19.62,0.31000000000000016 20.65,-4.39 h0 c1,-4.69 -6.54,-10.37 -16.89,-12.65 A38.91,38.91 0 0 0 187.08000000953672,6.839813032003569 z" fill="#231f20" id="svg_26"/><path d="M178.94000000953673,15.599813032003574 c0.13,-0.37000000000000016 0.28,-0.7400000000000003 0.43000000000000016,-1.1 c1.78,-4.08 8.73,-4.33 12.47,-4.07 a20.57,20.57 0 0 1 9.94,3 c2.35,1.55 4.83,4.36 5.08,7.3100000000000005 s-0.8400000000000003,6.68 -1.78,9.41 a10.53,10.53 0 0 1 -2.58,4.43 a10.74,10.74 0 0 1 -4.54,2.16 c-3.52,0.9500000000000003 -7.3100000000000005,1.4 -10.79,0.29000000000000015 s-7.17,-4.21 -8.22,-7.94 A22.63,22.63 0 0 1 178.94000000953673,15.599813032003574 z" fill="#fff" id="svg_27"/><path d="M191.60000000953676,38.21981303200357 a15.27,15.27 0 0 1 -4.58,-0.6700000000000006 c-4,-1.28 -7.5600000000000005,-4.69 -8.57,-8.3 s-1.78,-8.7 0,-13.77 h0 c0.13,-0.38000000000000017 0.28,-0.7600000000000003 0.44000000000000017,-1.13 c2.07,-4.77 10.46,-4.5600000000000005 13,-4.38 a20.81,20.81 0 0 1 10.2,3 c2.27,1.5 5,4.41 5.3100000000000005,7.69 c0.2,2.33 -0.41000000000000014,5.57 -1.82,9.63 a11.08,11.08 0 0 1 -2.71,4.6400000000000015 A11.34,11.34 0 0 1 198.09000000953677,37.21981303200357 A25,25 0 0 1 191.60000000953676,38.21981303200357 zm-12.17,-22.4 c-1.6900000000000006,4.82 -0.93,9.81 0,13.15 s4.17,6.41 7.8900000000000015,7.59 c2.9,0.92 6.34,0.8200000000000003 10.49,-0.30000000000000016 a10.51,10.51 0 0 0 4.34,-2 a10,10 0 0 0 2.43,-4.22 c1.36,-3.92 1.9500000000000002,-7 1.7600000000000002,-9.2 c-0.23,-2.73 -2.6100000000000003,-5.44 -4.85,-6.92 a19.72,19.72 0 0 0 -9.7,-2.88 c-2.35,-0.17 -10.15,-0.3900000000000002 -11.95,3.7600000000000002 c-0.15000000000000008,0.35000000000000014 -0.29000000000000015,0.7000000000000003 -0.42000000000000015,1.06 z" fill="#231f20" id="svg_28"/><path d="M223.59000000953677,75.65981303200357 l8.85,-10.28 c-6.07,-10.46 -12.41,-16.43 -16.61,-18.61 c-5.45,-3.77 -18,-3 -29.62,-2.36 a35.57,35.57 0 0 0 -10.870000000000001,2 c-13.13,4.91 -23.9,25.5 -23.9,25.5 l12.68,6.11 s-0.27,40.42 2.27,49.23 c0,0 36.27,5.78 61.84,-3.91 C228.24000000953674,123.37981303200357 223.58000000953672,79.10981303200357 223.59000000953677,75.65981303200357 z" fill="#279e72" id="svg_29"/><path d="M185.84000000953677,39.04981303200357 l0.79,8.84 s3.52,5 8.94,2.68 a11.66,11.66 0 0 0 6.61,-7.55 l-2.6500000000000004,-15.88 s-4.54,-1.55 -4.79,-10.82 a28.29,28.29 0 0 1 -14.3,4.42 s-1,10.25 0.43000000000000016,14.5 S185.84000000953677,39.04981303200357 185.84000000953677,39.04981303200357 z" fill="#fff" id="svg_30"/><path d="M192.76000000953672,51.68981303200357 c-4,0 -6.52,-3.46 -6.55,-3.5 a0.5800000000000003,0.5800000000000003 0 0 1 -0.09000000000000007,-0.25 l-0.7500000000000003,-8.37 c-1.1400000000000001,0 -3.8200000000000003,-0.5800000000000003 -5,-4.17 c-1.4100000000000001,-4.3 -0.5,-14.29 -0.46,-14.71 a0.53,0.53 0 0 1 0.5,-0.47000000000000014 a28,28 0 0 0 14,-4.32 a0.51,0.51 0 0 1 0.53,0 a0.53,0.53 0 0 1 0.29000000000000015,0.45 c0.23,8.73 4.4,10.33 4.44,10.34 a0.51,0.51 0 0 1 0.3400000000000003,0.4 l2.6500000000000004,15.89 a0.46,0.46 0 0 1 0,0.2 a12.09,12.09 0 0 1 -6.91,7.91 A7.77,7.77 0 0 1 192.76000000953672,51.68981303200357 zm-5.62,-4 c0.54,0.7000000000000003 3.64,4.33 8.22,2.4 a11.23,11.23 0 0 0 6.29,-7.1 l-2.58,-15.5 c-1,-0.51 -4.36,-2.74 -4.8,-10.26 a29.17,29.17 0 0 1 -13.36,4 c-0.1600000000000001,2 -0.7300000000000003,10.25 0.45,13.85 c1.23,3.7800000000000002 4.29,3.48 4.42,3.46 a0.54,0.54 0 0 1 0.3900000000000002,0.11000000000000004 a0.6000000000000003,0.6000000000000003 0 0 1 0.19000000000000009,0.36000000000000015 z" fill="#231f20" id="svg_31"/><path d="M196.18000000953674,27.39981303200357 a3.77,3.77 0 0 1 0.93,-2.17 a6.74,6.74 0 0 1 1.81,-1.32 a2.77,2.77 0 0 1 1.1600000000000001,-0.4 a2.1,2.1 0 0 1 0.8500000000000003,0.1600000000000001 a2.91,2.91 0 0 1 1.59,1.2 a3.48,3.48 0 0 1 0.3300000000000002,1.6 a6.63,6.63 0 0 1 -0.15000000000000008,1.78 a4.53,4.53 0 0 1 -5.53,3.29 " fill="#fff" id="svg_32"/><path d="M198.30000000953675,32.21981303200357 a5,5 0 0 1 -1.27,-0.1600000000000001 a0.51,0.51 0 0 1 -0.36000000000000015,-0.6300000000000003 a0.52,0.52 0 0 1 0.6300000000000003,-0.37000000000000016 a4,4 0 0 0 3.05,-0.43000000000000016 A4.1,4.1 0 0 0 202.24000000953674,28.129813032003568 a6.58,6.58 0 0 0 0.14,-1.6500000000000006 a3.21,3.21 0 0 0 -0.27,-1.36 a2.48,2.48 0 0 0 -1.32,-1 a1.6500000000000006,1.6500000000000006 0 0 0 -0.6500000000000004,-0.13 a2.23,2.23 0 0 0 -0.93,0.35000000000000014 a6,6 0 0 0 -1.6700000000000006,1.2 a3.19,3.19 0 0 0 -0.8,1.87 a0.53,0.53 0 0 1 -0.56,0.47000000000000014 a0.51,0.51 0 0 1 -0.47000000000000014,-0.55 a4.24,4.24 0 0 1 1.06,-2.48 a6.94,6.94 0 0 1 1.9500000000000002,-1.42 a3.07,3.07 0 0 1 1.37,-0.47000000000000014 a3,3 0 0 1 1.05,0.19000000000000009 a3.39,3.39 0 0 1 1.87,1.44 a4.11,4.11 0 0 1 0.4,1.84 a7.36,7.36 0 0 1 -0.17,1.92 a5,5 0 0 1 -4.9,3.8200000000000003 z" fill="#231f20" id="svg_33"/><path d="M186.44000000953673,43.40981303200357 a7.42,7.42 0 0 0 5.46,-2.81 c2.09,-2.8 1.6500000000000006,-4.15 1.6500000000000006,-4.15 s-3.64,2.84 -7.46,2.7 z" fill="#231f20" id="svg_34"/><path d="M186.44000000953673,43.90981303200357 a0.5,0.5 0 0 1 -0.5,-0.46 L185.60000000953676,39.21981303200357 a0.52,0.52 0 0 1 0.13,-0.38000000000000017 a0.47000000000000014,0.47000000000000014 0 0 1 0.38000000000000017,-0.1600000000000001 c3.58,0.13 7.1,-2.5700000000000003 7.14,-2.6 a0.48000000000000015,0.48000000000000015 0 0 1 0.45,-0.08000000000000004 a0.52,0.52 0 0 1 0.3300000000000002,0.3200000000000002 c0,0.17 0.45,1.6800000000000006 -1.73,4.6 a7.88,7.88 0 0 1 -5.86,3 zm0.19000000000000009,-4.26 l0.26,3.23 a6.9,6.9 0 0 0 4.61,-2.58 a8.12,8.12 0 0 0 1.51,-2.87 A13.33,13.33 0 0 1 186.63000000953673,39.64981303200358 z" fill="#231f20" id="svg_35"/><path d="M187.05000000953675,25.099813032003574 s-2.4,4.8 -1.6,5.48 s2.71,-0.07 2.71,-0.07 " fill="#fff" id="svg_36"/><path d="M186.44000000953673,31.36981303200357 a2,2 0 0 1 -1.31,-0.4 c-0.91,-0.78 0.30000000000000016,-3.74 1.48,-6.09 a0.5,0.5 0 1 1 0.8900000000000003,0.44000000000000017 c-1.1,2.2 -1.8900000000000001,4.5 -1.6900000000000006,4.92 c0.35000000000000014,0.29000000000000015 1.49,0.07 2.17,-0.2 a0.5,0.5 0 1 1 0.37000000000000016,0.93 A5.76,5.76 0 0 1 186.44000000953673,31.36981303200357 z" fill="#231f20" id="svg_37"/><path d="M187.93000000953674,33.76981303200357 s3.44,0.6500000000000004 3.93,-2.66 " fill="#fff" id="svg_38"/><path d="M188.61000000953675,34.31981303200357 a5.27,5.27 0 0 1 -0.77,-0.06000000000000003 a0.5,0.5 0 1 1 0.19000000000000009,-1 a3.42,3.42 0 0 0 2.36,-0.45 a2.5300000000000002,2.5300000000000002 0 0 0 1,-1.79 a0.5,0.5 0 0 1 1,0.15000000000000008 a3.47,3.47 0 0 1 -1.4,2.46 A4.06,4.06 0 0 1 188.61000000953675,34.31981303200357 z" fill="#231f20" id="svg_39"/><ellipse cx="380.8699896335602" cy="332.7798144052946" rx="1.0399999618530273" ry="0.7400000095367432" transform="rotate(-84.95999908447266 118.04000091552729,281.65982055664057) " fill="#231f20" id="svg_40"/><ellipse cx="365.1000006198883" cy="327.0698267649137" rx="1.0399999618530273" ry="0.7400000095367432" transform="rotate(-84.95999908447266 109.98000335693351,274.91983032226557) " fill="#231f20" id="svg_41"/><polygon points="192.0099792778492,63.46981493571354 169.47000125050545,70.07981936076237 148.090011626482,64.57981936076237 128.0299988090992,69.65982119181706 105.99999240040779,63.37981859782292 129.6899872124195,118.26982180216862 148.48001101613045,123.23982302287175 164.17999270558357,117.13981691935612 180.85998538136482,123.55981508830143 194.78997805714607,118.919815698653 192.0099792778492,63.46981493571354 " fill="#fff" id="svg_42"/><path d="M106.00000000953673,63.37981303200357 l22,6.28 l20.06,-5.08 l21.38,5.5 l22.54,-6.61 l2.7800000000000002,55.45 l-13.93,4.6400000000000015 l-16.68,-6.42 l-15.7,6.1 l-18.79,-5 L106.00000000953673,63.37981303200357 m0,-1 a1,1 0 0 0 -0.7500000000000003,0.3400000000000003 a1,1 0 0 0 -0.17,1.06 l23.69,54.89 a1,1 0 0 0 0.6700000000000006,0.5700000000000003 L148.24000000953674,124.21981303200357 a1.07,1.07 0 0 0 0.25,0 a0.9400000000000003,0.9400000000000003 0 0 0 0.37000000000000016,-0.07 L164.18000000953674,118.21981303200357 l16.32,6.28 a1.13,1.13 0 0 0 0.36000000000000015,0.06000000000000003 a0.8600000000000003,0.8600000000000003 0 0 0 0.3200000000000002,-0.05000000000000003 l13.93,-4.6400000000000015 a1,1 0 0 0 0.6800000000000006,-1 L193.01000000953672,63.419813032003574 a1,1 0 0 0 -0.42000000000000015,-0.7600000000000003 a1.05,1.05 0 0 0 -0.5800000000000003,-0.19000000000000009 a1.26,1.26 0 0 0 -0.28,0 l-22.28,6.53 L148.34000000953674,63.61981303200358 a1.18,1.18 0 0 0 -0.25,0 a0.6900000000000006,0.6900000000000006 0 0 0 -0.25,0 l-19.8,5 L106.24000000953674,62.419813032003574 a1.26,1.26 0 0 0 -0.27,0 z" fill="#231f20" id="svg_43"/><path d="M180.72000000953673,123.40981303200357 a0.5,0.5 0 0 1 -0.49000000000000016,-0.4 L169.08000000953675,70.65981303200357 a0.5,0.5 0 0 1 0.38000000000000017,-0.6000000000000003 a0.52,0.52 0 0 1 0.6000000000000003,0.3900000000000002 L181.24000000953674,122.79981303200358 a0.5,0.5 0 0 1 -0.38000000000000017,0.6000000000000003 z" fill="#d1d3d4" id="svg_44"/><path d="M163.98000000953675,117.01981303200358 a0.51,0.51 0 0 1 -0.48000000000000015,-0.36000000000000015 L147.82000000953676,65.41981303200357 a0.51,0.51 0 0 1 0.3300000000000002,-0.6300000000000003 a0.5,0.5 0 0 1 0.6200000000000003,0.3300000000000002 l15.69,51.25 a0.51,0.51 0 0 1 -0.3300000000000002,0.6300000000000003 z" fill="#d1d3d4" id="svg_45"/><path d="M148.24000000953674,123.15981303200357 a0.48000000000000015,0.48000000000000015 0 0 1 -0.46,-0.3200000000000002 l-20,-52.36 a0.5,0.5 0 0 1 0.9400000000000003,-0.35000000000000014 l20,52.36 a0.5,0.5 0 0 1 -0.29000000000000015,0.6400000000000003 A0.5700000000000003,0.5700000000000003 0 0 1 148.24000000953674,123.15981303200357 z" fill="#d1d3d4" id="svg_46"/><path d="M112.75000000953673,84.84981303200357 a12.1,12.1 0 0 0 0.8700000000000003,3.11 l1.92,5 c0.48000000000000015,1.24 1.25,2.7 2.58,2.71 a3.4,3.4 0 0 0 2.2800000000000002,-1.36 c2,-2 4,-4.24 4.5,-7 c0.08000000000000004,-0.4 0,-0.9400000000000003 -0.37000000000000016,-1 a0.78,0.78 0 0 0 -0.51,0.11000000000000004 a10.9,10.9 0 0 0 -3.6900000000000004,2.87 a24.71,24.71 0 0 0 3.58,-4.91 c0.22000000000000008,-0.3900000000000002 0.3900000000000002,-1 0,-1.24 a1,1 0 0 0 -0.8700000000000003,0 a8.38,8.38 0 0 0 -2.8200000000000003,1.7600000000000002 a7.39,7.39 0 0 0 2.55,-3.12 c0.2,-0.46 0.29000000000000015,-1.13 -0.1600000000000001,-1.37 s-0.77,0.06000000000000003 -1.08,0.31000000000000016 a16.21,16.21 0 0 0 -2.16,2 a5.47,5.47 0 0 0 1,-2.24 a0.7200000000000003,0.7200000000000003 0 0 0 0,-0.54 c-0.23,-0.3400000000000003 -0.7600000000000003,-0.11000000000000004 -1.09,0.14 l-4.6,3.59 c0.21000000000000008,-0.1600000000000001 -0.92,-1.47 -1.36,-1.35 C112.67000000953675,82.45981303200357 112.70000000953675,84.39981303200358 112.75000000953673,84.84981303200357 z" fill="#fff" id="svg_47"/><path d="M118.14000000953675,96.21981303200357 h0 c-1.8800000000000003,0 -2.75,-2.29 -3,-3 l-1.92,-5 a11.81,11.81 0 0 1 -0.91,-3.24 h0 c0,-0.29000000000000015 -0.22000000000000008,-2.7800000000000002 0.92,-3.1 c0.6200000000000003,-0.17 1.34,0.55 1.7000000000000002,1 l4.09,-3.19 a1.7200000000000002,1.7200000000000002 0 0 1 1.22,-0.41000000000000014 a0.8800000000000003,0.8800000000000003 0 0 1 0.6000000000000003,0.3900000000000002 a1.15,1.15 0 0 1 0.11000000000000004,0.91 a0.09000000000000007,0.09000000000000007 0 0 1 0,0.05000000000000003 l0.37000000000000016,-0.29000000000000015 a1.48,1.48 0 0 1 1.62,-0.35000000000000014 c0.7200000000000003,0.37000000000000016 0.7100000000000003,1.28 0.3900000000000002,2 a7.18,7.18 0 0 1 -0.3400000000000003,0.6800000000000006 a1.4300000000000002,1.4300000000000002 0 0 1 1.31,0.07 c0.51,0.38000000000000017 0.56,1.08 0.11000000000000004,1.8900000000000001 c-0.29000000000000015,0.52 -0.5900000000000003,1 -0.92,1.53 l0.38000000000000017,-0.19000000000000009 a1.28,1.28 0 0 1 0.8400000000000003,-0.15000000000000008 c0.6100000000000003,0.14 0.91,0.78 0.7500000000000003,1.61 c-0.56,3 -2.81,5.37 -4.62,7.26 A3.84,3.84 0 0 1 118.14000000953675,96.21981303200357 zM113.24000000953674,84.79981303200357 a11.65,11.65 0 0 0 0.8500000000000003,3 l1.92,5 c0.6200000000000003,1.6 1.31,2.38 2.11,2.39 a3.13,3.13 0 0 0 1.92,-1.21 c1.7200000000000002,-1.8 3.8600000000000003,-4 4.37,-6.75 a0.8500000000000003,0.8500000000000003 0 0 0 0,-0.46 l-0.15000000000000008,0.08000000000000004 a10.620000000000001,10.620000000000001 0 0 0 -2.93,2.08 c-0.2,0.23 -0.41000000000000014,0.46 -0.6200000000000003,0.6800000000000006 a0.5,0.5 0 0 1 -0.7400000000000003,-0.6600000000000005 c0.2,-0.24000000000000007 0.41000000000000014,-0.47000000000000014 0.6300000000000003,-0.7000000000000003 a24.28,24.28 0 0 0 2.89,-4.13 a0.92,0.92 0 0 0 0.17,-0.6000000000000003 h0 s-0.08000000000000004,0 -0.4,0.08000000000000004 a8,8 0 0 0 -1.8,1 a9.32,9.32 0 0 1 -0.9,0.7400000000000003 a0.5,0.5 0 0 1 -0.6300000000000003,-0.78 a8.85,8.85 0 0 1 0.8900000000000003,-0.7300000000000003 a6.86,6.86 0 0 0 1.54,-2.22 c0.1600000000000001,-0.35000000000000014 0.15000000000000008,-0.6800000000000006 0.07,-0.7200000000000003 s-0.22000000000000008,0 -0.55,0.25 a17.32,17.32 0 0 0 -2.09,1.9300000000000002 a0.5,0.5 0 0 1 -0.77,-0.6400000000000003 a5,5 0 0 0 0.91,-2 a0.44000000000000017,0.44000000000000017 0 0 0 0,-0.1 a1.08,1.08 0 0 0 -0.35000000000000014,0.2 l-4.6,3.58 h0 a0.5,0.5 0 0 1 -0.7000000000000003,-0.09000000000000007 a0.55,0.55 0 0 1 -0.1,-0.37000000000000016 a2.79,2.79 0 0 0 -0.7600000000000003,-0.77 a5.6400000000000015,5.6400000000000015 0 0 0 -0.17,2 zm1.12,-1.56 zm-1,-0.47000000000000014 z" fill="#231f20" id="svg_48"/><path d="M231.06000000953674,62.48981303200357 s28.06,40.79 12.81,44.79 c-10.61,2.79 -32.56,-0.29000000000000015 -41,-3.72 s-12,-6.17 -12,-6.17 s-9,0.13 -8.15,-2.11 a3,3 0 0 1 3.21,-1.9 s-4.32,0 -4,-2.08 s3.89,-1.6900000000000006 3.89,-1.6900000000000006 s-6.21,-1.61 -4.71,-3 s4.66,-0.6900000000000006 4.66,-0.6900000000000006 s-4.23,-0.38000000000000017 -4.24,-2.18 c0,-3.07 13.27,-0.91 16,1.27 s22.3,4.26 25.13,4.28 l-7.85,-18.46 " fill="#fff" id="svg_49"/><path d="M233.07000000953673,108.87981303200357 c-10.91,0 -24.13,-2.3200000000000003 -30.35,-4.86 a60.83,60.83 0 0 1 -12,-6.13 c-1.55,0 -7.23,0 -8.33,-1.6300000000000003 a1.2,1.2 0 0 1 -0.12000000000000002,-1.1600000000000001 a3.38,3.38 0 0 1 1.19,-1.57 a3.37,3.37 0 0 1 -1.61,-0.92 a1.6600000000000001,1.6600000000000001 0 0 1 -0.36000000000000015,-1.3900000000000001 a2.42,2.42 0 0 1 1.86,-1.8800000000000003 c-1.36,-0.51 -2.7,-1.2 -2.9,-2 a1.05,1.05 0 0 1 0.38000000000000017,-1 a3.66,3.66 0 0 1 1.48,-0.7600000000000003 a2,2 0 0 1 -1.23,-1.73 a1.61,1.61 0 0 1 1.06,-1.48 c3,-1.48 13.21,0.3200000000000002 15.78,2.36 c2.33,1.85 19.24,3.89 24,4.14 l-7.54,-17.73 a0.49000000000000016,0.49000000000000016 0 0 1 0.26,-0.6500000000000004 a0.5,0.5 0 0 1 0.6600000000000005,0.26 L223.24000000953674,89.13981303200357 a0.5,0.5 0 0 1 -0.46,0.7000000000000003 h0 c-2.25,0 -22.45,-2 -25.44,-4.39 c-2.2800000000000002,-1.81 -12,-3.54 -14.72,-2.24 c-0.49000000000000016,0.24000000000000007 -0.49000000000000016,0.48000000000000015 -0.49000000000000016,0.5700000000000003 c0,0.8200000000000003 1.62,1.34 2.91,1.57 a9.34,9.34 0 0 1 0.93,0.13 a0.5,0.5 0 0 1 0.3900000000000002,0.5700000000000003 a0.49000000000000016,0.49000000000000016 0 0 1 -0.54,0.42000000000000015 c-0.12000000000000002,0 -0.47000000000000014,0 -0.9400000000000003,-0.13 a4.8,4.8 0 0 0 -3.34,0.6900000000000006 l-0.07,0.08000000000000004 c0.08000000000000004,0.45 2.26,1.4100000000000001 4.58,2 a0.5,0.5 0 0 1 0.36000000000000015,0.5800000000000003 a0.5,0.5 0 0 1 -0.54,0.4 s-3.08,-0.26 -3.35,1.29 a0.6400000000000003,0.6400000000000003 0 0 0 0.15000000000000008,0.5700000000000003 a4.72,4.72 0 0 0 2.83,0.9 a3.33,3.33 0 0 1 0.56,0 a0.51,0.51 0 0 1 0.43000000000000016,0.54 a0.5,0.5 0 0 1 -0.5,0.46 a2.09,2.09 0 0 1 -0.47000000000000014,0 a2.47,2.47 0 0 0 -2.27,1.6 a0.2,0.2 0 0 0 0,0.23 c0.6100000000000003,0.8900000000000003 4.83,1.24 7.65,1.2 a0.45,0.45 0 0 1 0.31000000000000016,0.1 s3.66,2.74 11.88,6.11 s30.21,6.44 40.64,3.7 a5,5 0 0 0 3.68,-3.23 c3.92,-10.54 -16.56,-40.49 -16.77,-40.8 a0.5,0.5 0 0 1 0.8200000000000003,-0.56 c0.8600000000000003,1.25 21,30.69 16.89,41.71 a6,6 0 0 1 -4.36,3.84 A44.82,44.82 0 0 1 233.07000000953673,108.87981303200357 z" fill="#231f20" id="svg_50"/><path d="M185.74000000953674,237.4398130320036 s-4.8900000000000015,3.81 -8.8,0.6800000000000006 c0,0 -12.86,-1.15 -14.33,7.65 h22.76 z" fill="#231f20" id="svg_51"/><path d="M185.37000000953674,246.26981303200358 H162.61000000953675 a0.49000000000000016,0.49000000000000016 0 0 1 -0.38000000000000017,-0.18000000000000008 a0.52,0.52 0 0 1 -0.11000000000000004,-0.4 c1.53,-9.15 14.74,-8.07 14.870000000000001,-8.06 a0.54,0.54 0 0 1 0.27,0.11000000000000004 c3.55,2.84 8,-0.55 8.17,-0.6900000000000006 a0.5,0.5 0 0 1 0.54,-0.05000000000000003 a0.52,0.52 0 0 1 0.27,0.46 l-0.37000000000000016,8.33 A0.5,0.5 0 0 1 185.37000000953674,246.26981303200358 zm-22.15,-1 h21.68 l0.30000000000000016,-6.88 c-1.6300000000000003,1 -5.3,2.6100000000000003 -8.44,0.22000000000000008 C175.41000000953673,238.52981303200357 164.95000000953675,238.11981303200355 163.24000000953674,245.26981303200358 z" fill="#231f20" id="svg_52"/><rect x="32.76999878883362" y="63.3098093698942" width="4.300000190734863" height="155.75" fill="#fff" id="svg_53"/><path d="M37.07000000953674,219.55981303200358 h-4.3 a0.5,0.5 0 0 1 -0.5,-0.5 V63.309813032003575 a0.5,0.5 0 0 1 0.5,-0.5 h4.3 a0.51,0.51 0 0 1 0.5,0.5 V219.05981303200358 A0.5,0.5 0 0 1 37.07000000953674,219.55981303200358 zm-3.8,-1 h3.3 V63.809813032003575 H33.24000000953674 z" fill="#d1d3d4" id="svg_54"/><polygon points="54.15999987721443,117.48982302287175 10.939996749162674,117.48982302287175 10.939996749162674,98.20980898478581 54.15999987721443,98.20980898478581 61.079998046159744,107.84982363322331 54.15999987721443,117.48982302287175 " fill="#fff" id="svg_55"/><path d="M54.160000009536745,117.98981303200358 H10.940000009536746 a0.5,0.5 0 0 1 -0.5,-0.5 V98.21981303200357 a0.5,0.5 0 0 1 0.5,-0.5 h43.22 a0.49000000000000016,0.49000000000000016 0 0 1 0.4,0.21000000000000008 l6.93,9.64 a0.51,0.51 0 0 1 0,0.5800000000000003 l-6.93,9.64 A0.46,0.46 0 0 1 54.160000009536745,117.98981303200358 zm-42.72,-1 h42.46 l6.5600000000000005,-9.14 l-6.5600000000000005,-9.14 H11.440000009536746 z" fill="#d1d3d4" id="svg_56"/><polygon points="11.379999190568924,90.84981600382878 54.60000231862068,90.84981600382878 54.60000231862068,71.5698172245319 11.379999190568924,71.5698172245319 4.4600010216236115,81.20980898478581 11.379999190568924,90.84981600382878 " fill="#fff" id="svg_57"/><path d="M54.60000000953674,91.34981303200357 H11.380000009536744 a0.52,0.52 0 0 1 -0.41000000000000014,-0.21000000000000008 l-6.92,-9.64 a0.53,0.53 0 0 1 0,-0.5900000000000003 l6.92,-9.64 a0.51,0.51 0 0 1 0.41000000000000014,-0.2 h43.22 a0.5,0.5 0 0 1 0.5,0.5 v19.28 A0.51,0.51 0 0 1 54.60000000953674,91.34981303200357 zm-43,-1 h42.46 V72.06981303200357 H11.640000009536749 L5.0700000095367415,81.21981303200357 z" fill="#d1d3d4" id="svg_58"/></g></g></svg>