<svg xmlns="http://www.w3.org/2000/svg" width="291" height="202"><rect id="backgroundrect" width="100%" height="100%" x="0" y="0" fill="none" stroke="none" class="" style=""/><g class="currentLayer" style=""><title>Layer 1</title><g id="_102_traveling" data-name="#102_traveling" class=""><path d="M290.45000076293945,156.32000030517577 H0.5000007629394503 a0.51,0.51 0 0 1 -0.5,-0.5 V141.43000030517578 a0.5,0.5 0 0 1 0.5,-0.5 H290.45000076293945 a0.5,0.5 0 0 1 0.5,0.5 v14.39 A0.51,0.51 0 0 1 290.45000076293945,156.32000030517577 zm-289.4,-1 h288.9 V141.93000030517578 H1.0000007629394503 z" fill="#d1d3d4" id="svg_1"/><path d="M290.45000076293945,141.93000030517578 H0.5000007629394503 a0.51,0.51 0 0 1 -0.5,-0.5 V0.5000003051757815 a0.5,0.5 0 0 1 0.5,-0.5 H290.45000076293945 a0.5,0.5 0 0 1 0.5,0.5 V141.43000030517578 A0.51,0.51 0 0 1 290.45000076293945,141.93000030517578 zm-289.4,-1 h288.9 V1.0000003051757815 H1.0000007629394503 z" fill="#d1d3d4" id="svg_2"/><path d="M91.72000076293946,141.93000030517578 a0.5,0.5 0 0 1 -0.5,-0.5 V0.5000003051757815 a0.5,0.5 0 0 1 0.5,-0.5 a0.5,0.5 0 0 1 0.5,0.5 V141.43000030517578 A0.51,0.51 0 0 1 91.72000076293946,141.93000030517578 z" fill="#d1d3d4" id="svg_3"/><path d="M199.18000076293944,141.93000030517578 a0.51,0.51 0 0 1 -0.5,-0.5 V0.5000003051757815 a0.5,0.5 0 0 1 0.5,-0.5 a0.5,0.5 0 0 1 0.5,0.5 V141.43000030517578 A0.5,0.5 0 0 1 199.18000076293944,141.93000030517578 z" fill="#d1d3d4" id="svg_4"/><path d="M290.45000076293945,71.43000030517578 H0.5000007629394503 a0.5,0.5 0 0 1 -0.5,-0.5 a0.51,0.51 0 0 1 0.5,-0.5 H290.45000076293945 a0.51,0.51 0 0 1 0.5,0.5 A0.5,0.5 0 0 1 290.45000076293945,71.43000030517578 z" fill="#d1d3d4" id="svg_5"/><path d="M141.99000076293945,32.43000030517578 a34.74,34.74 0 0 1 9.28,0.5800000000000001 c4.84,1.06 9.56,3.9 11.63,8.41 c1.3900000000000001,3 1.46,6.52 1.5,9.870000000000001 l0.15000000000000002,11.58 l0,3.71 c0,2.8200000000000003 0.07,5.640000000000001 0.06000000000000001,8.46 a44.76,44.76 0 0 1 -0.6900000000000002,8.74 c-1,4.640000000000001 -3.49,9.21 -7.71,11.35 a18.18,18.18 0 0 1 -9,1.51 a33.41,33.41 0 0 1 -18.47,-6.2 a24.71,24.71 0 0 1 -9.94,-16.48 c-0.38000000000000006,-3.17 0.6100000000000001,-6.67 0.7200000000000001,-9.93 a98.24,98.24 0 0 1 0.8900000000000001,-11.11 c0.9400000000000001,-6.45 2.74,-14.86 8.92,-18.37 c2.13,-1.21 4.66,-1.46 7.09,-1.6900000000000002 C138.29000076293946,32.670000305175776 140.14000076293945,32.500000305175774 141.99000076293945,32.43000030517578 z" fill="#231f20" id="svg_6"/><path d="M148.65000076293944,97.15000030517578 c-0.46,0 -0.9400000000000001,0 -1.4300000000000002,0 A33.53,33.53 0 0 1 128.45000076293945,90.82000030517577 a25.06,25.06 0 0 1 -10.13,-16.82 a24.56,24.56 0 0 1 0.32000000000000006,-6.15 c0.17,-1.28 0.35000000000000003,-2.6100000000000003 0.39000000000000007,-3.8600000000000003 a97.35,97.35 0 0 1 0.8900000000000001,-11.17 c1,-6.86 3,-15.19 9.18,-18.72 c2.26,-1.28 4.93,-1.53 7.29,-1.75 c1.71,-0.16000000000000003 3.6500000000000004,-0.3400000000000001 5.55,-0.44000000000000006 h0 a35.53,35.53 0 0 1 9.42,0.5900000000000001 c5.5600000000000005,1.22 10,4.47 12,8.69 c1.46,3.2 1.51,6.85 1.55,10.07 l0.19000000000000003,15.29 c0,2.83 0.07,5.68 0.05000000000000001,8.48 a45.35,45.35 0 0 1 -0.7000000000000001,8.83 c-1.11,5.43 -4,9.69 -8,11.69 A16.83,16.83 0 0 1 148.65000076293944,97.15000030517578 zm-6.640000000000001,-64.24 c-1.87,0.09000000000000002 -3.81,0.27 -5.51,0.43000000000000005 c-2.26,0.21000000000000002 -4.82,0.45 -6.890000000000001,1.62 c-5.85,3.3200000000000003 -7.71,11.37 -8.68,18 a97.3,97.3 0 0 0 -0.8900000000000001,11.06 a37.75,37.75 0 0 1 -0.4,4 a24.72,24.72 0 0 0 -0.32000000000000006,5.9 a24.06,24.06 0 0 0 9.75,16.14 a32.59,32.59 0 0 0 18.2,6.1 c3.7,0.16000000000000003 6.49,-0.30000000000000004 8.75,-1.45 c3.68,-1.87 6.39,-5.88 7.45,-11 a44.71,44.71 0 0 0 0.6800000000000002,-8.64 c0,-2.79 0,-5.63 0,-8.38 l-0.19000000000000003,-15.37 c0,-3.12 -0.09000000000000002,-6.66 -1.47,-9.66 c-1.8,-3.94 -6,-7 -11.28,-8.13 a34.35,34.35 0 0 0 -9.15,-0.5700000000000001 zm0,-0.5 h0 z" fill="#231f20" id="svg_7"/><path d="M103.79000076293946,50.08000030517579 l-15.22,10.620000000000001 L76.45000076293945,37.530000305175776 s0.7600000000000001,-9.61 -0.7600000000000001,-10.67 s-2.2800000000000002,3.36 -2.2800000000000002,3.36 s-3.35,-9.31 -4.41,-8.92 s-5,2.8200000000000003 -5,5.25 s13.69,47.19 17.64,49 s34.6,-16.29 34.6,-16.29 " fill="#fff" id="svg_8"/><path d="M82.23000076293945,76.17000030517579 a2.12,2.12 0 0 1 -0.8700000000000001,-0.15000000000000002 c-1.85,-0.8600000000000001 -5.4,-9.13 -10.57,-24.58 C67.14000076293945,40.530000305175776 63.45000076293945,27.960000305175782 63.45000076293945,26.550000305175786 c0,-2.79 4.26,-5.33 5.35,-5.72 a0.7200000000000001,0.7200000000000001 0 0 1 0.5700000000000001,0 c1.07,0.5 2.88,4.94 3.91,7.66 c0.30000000000000004,-0.93 0.77,-2 1.47,-2.24 a1.2,1.2 0 0 1 1.2,0.17 c1.59,1.11 1.17,8.5 1,11 l11.84,22.54 l14.76,-10.3 a0.5,0.5 0 0 1 0.5700000000000001,0.8200000000000001 L88.85000076293946,61.11000030517579 a0.51,0.51 0 0 1 -0.4,0.08000000000000002 a0.54,0.54 0 0 1 -0.33000000000000007,-0.26 L75.96000076293944,37.76000030517578 a0.42000000000000004,0.42000000000000004 0 0 1 -0.06000000000000001,-0.27 c0.36000000000000004,-4.48 0.25,-9.67 -0.55,-10.23 c-0.14,-0.09000000000000002 -0.2,-0.07 -0.23,-0.06000000000000001 c-0.52,0.22000000000000003 -1.07,1.94 -1.27,3.11 a0.5,0.5 0 0 1 -0.45,0.41000000000000003 a0.48000000000000004,0.48000000000000004 0 0 1 -0.51,-0.33000000000000007 c-1.35,-3.74 -3.18,-8 -3.9,-8.57 c-1.12,0.47000000000000003 -4.5600000000000005,2.6900000000000004 -4.5600000000000005,4.73 c0,2.8 13.93,47 17.35,48.56 c2.72,1.26 22.38,-9.32 34.14,-16.27 a0.5,0.5 0 0 1 0.51,0.8600000000000001 C113.45000076293945,61.43000030517578 88.39000076293945,76.17000030517579 82.23000076293945,76.17000030517579 z" fill="#231f20" id="svg_9"/><rect x="212.93001174926758" y="195.15999603271484" width="4.869999885559082" height="6.239999771118164" rx="1.9299999475479126" fill="#231f20" id="svg_10"/><path d="M215.86000076293948,201.89000030517576 h-1 A2.43,2.43 0 0 1 212.45000076293945,199.43000030517578 v-2.37 a2.43,2.43 0 0 1 2.43,-2.43 h1 a2.43,2.43 0 0 1 2.43,2.43 V199.43000030517578 A2.43,2.43 0 0 1 215.86000076293948,201.89000030517576 zm-1,-6.23 a1.4300000000000002,1.4300000000000002 0 0 0 -1.4300000000000002,1.4300000000000002 V199.43000030517578 a1.4300000000000002,1.4300000000000002 0 0 0 1.4300000000000002,1.4300000000000002 h1 a1.4300000000000002,1.4300000000000002 0 0 0 1.4300000000000002,-1.4300000000000002 v-2.37 a1.4300000000000002,1.4300000000000002 0 0 0 -1.4300000000000002,-1.4300000000000002 z" fill="#231f20" id="svg_11"/><rect x="191.41000747680664" y="195.15999603271484" width="4.869999885559082" height="6.239999771118164" rx="1.9299999475479126" fill="#231f20" id="svg_12"/><path d="M194.34000076293944,201.89000030517576 h-1 a2.43,2.43 0 0 1 -2.43,-2.43 v-2.37 a2.43,2.43 0 0 1 2.43,-2.43 h1 a2.44,2.44 0 0 1 2.44,2.43 V199.43000030517578 A2.44,2.44 0 0 1 194.34000076293944,201.89000030517576 zm-1,-6.23 a1.4300000000000002,1.4300000000000002 0 0 0 -1.4300000000000002,1.4300000000000002 V199.43000030517578 a1.4300000000000002,1.4300000000000002 0 0 0 1.4300000000000002,1.4300000000000002 h1 a1.44,1.44 0 0 0 1.44,-1.4300000000000002 v-2.37 a1.44,1.44 0 0 0 -1.44,-1.4300000000000002 z" fill="#231f20" id="svg_13"/><polygon points="173.16000747680664,141.31000518798828 188.97999954223633,132.32999420166016 224.7700080871582,132.32999420166016 235.21001052856445,182.9800033569336 222.27998733520508,194.54000091552734 173.16000747680664,141.31000518798828 " fill="#fff" id="svg_14"/><path d="M222.28000076293944,195.0400003051758 a0.46,0.46 0 0 1 -0.36000000000000004,-0.16000000000000003 l-49.13,-53.23 a0.5,0.5 0 0 1 0.12000000000000001,-0.78 l15.82,-9 a0.51,0.51 0 0 1 0.24000000000000002,-0.07 h35.8 a0.5,0.5 0 0 1 0.49000000000000005,0.4 l10.44,50.65 a0.5,0.5 0 0 1 -0.15000000000000002,0.48000000000000004 l-12.93,11.56 A0.54,0.54 0 0 1 222.28000076293944,195.0400003051758 zM173.95000076293945,141.43000030517578 l48.37,52.41 l12.35,-11 l-10.31,-50 H189.11000076293945 z" fill="#231f20" id="svg_15"/><polygon points="222.27998733520508,194.54000091552734 183.9599952697754,194.54000091552734 173.16000747680664,141.31000518798828 211.49000930786133,141.31000518798828 222.27998733520508,194.54000091552734 " fill="#fff" id="svg_16"/><path d="M222.28000076293944,195.0400003051758 H183.96000076293944 a0.49000000000000005,0.49000000000000005 0 0 1 -0.49000000000000005,-0.4 L172.67000076293945,141.43000030517578 a0.53,0.53 0 0 1 0.1,-0.42000000000000004 a0.5,0.5 0 0 1 0.39000000000000007,-0.18000000000000002 H211.45000076293945 a0.49000000000000005,0.49000000000000005 0 0 1 0.49000000000000005,0.4 L222.77000076293945,194.43000030517578 a0.49000000000000005,0.49000000000000005 0 0 1 -0.1,0.42000000000000004 A0.48000000000000004,0.48000000000000004 0 0 1 222.28000076293944,195.0400003051758 zm-37.91,-1 h37.3 l-10.59,-52.23 H173.77000076293945 z" fill="#231f20" id="svg_17"/><polygon points="188.97999954223633,193.0999984741211 189.8900032043457,196.14000701904297 216.96001052856445,196.14000701904297 216.43001174926758,193.0999984741211 188.97999954223633,193.0999984741211 " fill="#231f20" id="svg_18"/><path d="M216.96000076293944,196.6400003051758 H189.89000076293945 a0.5,0.5 0 0 1 -0.48000000000000004,-0.36000000000000004 l-0.91,-3 a0.49000000000000005,0.49000000000000005 0 0 1 0.07,-0.44000000000000006 a0.51,0.51 0 0 1 0.4,-0.2 H216.45000076293945 a0.49000000000000005,0.49000000000000005 0 0 1 0.49000000000000005,0.41000000000000003 l0.53,3 a0.47000000000000003,0.47000000000000003 0 0 1 -0.11000000000000001,0.41000000000000003 A0.49000000000000005,0.49000000000000005 0 0 1 216.96000076293944,196.6400003051758 zm-26.7,-1 h26.11 l-0.36000000000000004,-2 H189.65000076293944 z" fill="#231f20" id="svg_19"/><path d="M200.69000076293946,143.75000030517577 H181.62000076293944 a0.5,0.5 0 0 1 -0.49000000000000005,-0.39000000000000007 l-8.61,-39.14 a0.49000000000000005,0.49000000000000005 0 0 1 0.09000000000000002,-0.42000000000000004 a0.51,0.51 0 0 1 0.39000000000000007,-0.19000000000000003 h19.57 a0.49000000000000005,0.49000000000000005 0 0 1 0.49000000000000005,0.4 l8.12,39.14 a0.5,0.5 0 0 1 -0.11000000000000001,0.42000000000000004 A0.46,0.46 0 0 1 200.69000076293946,143.75000030517577 zm-18.67,-1 h18.05 l-7.9,-38.14 H173.63000076293946 z" fill="#231f20" id="svg_20"/><path d="M211.45000076293945,141.81000030517578 a0.48000000000000004,0.48000000000000004 0 0 1 -0.42000000000000004,-0.23 a0.49000000000000005,0.49000000000000005 0 0 1 0.14,-0.6900000000000002 l11.66,-7.61 a0.51,0.51 0 0 1 0.7000000000000001,0.15000000000000002 a0.5,0.5 0 0 1 -0.15000000000000002,0.6900000000000002 l-11.66,7.61 A0.56,0.56 0 0 1 211.45000076293945,141.81000030517578 z" fill="#231f20" id="svg_21"/><path d="M195.01000076293946,104.61000030517579 H170.67000076293945 a0.5,0.5 0 0 1 -0.5,-0.5 a0.51,0.51 0 0 1 0.5,-0.5 h24.34 a0.51,0.51 0 0 1 0.5,0.5 A0.5,0.5 0 0 1 195.01000076293946,104.61000030517579 z" fill="#231f20" id="svg_22"/><polygon points="112.91000747680664,180.65999603271484 109.16000747680664,189.5999984741211 100.58000564575195,185.84000396728516 104.47999954223633,175.9800033569336 112.91000747680664,180.65999603271484 " fill="#fff" id="svg_23"/><path d="M104.45000076293945,175.9800003051758 l8.43,4.68 l-3.75,8.94 l-8.58,-3.77 l3.9,-9.85 m0,-1 a0.92,0.92 0 0 0 -0.33000000000000007,0.06000000000000001 a1,1 0 0 0 -0.6000000000000001,0.5700000000000001 L99.65000076293944,185.43000030517578 a1,1 0 0 0 0.53,1.28 l8.58,3.77 a1.1,1.1 0 0 0 0.4,0.08000000000000002 a0.9400000000000001,0.9400000000000001 0 0 0 0.37000000000000005,-0.07 a1,1 0 0 0 0.55,-0.54 l3.75,-8.94 a1,1 0 0 0 -0.44000000000000006,-1.26 l-8.42,-4.68 a1,1 0 0 0 -0.49000000000000005,-0.13 z" fill="#231f20" id="svg_24"/><path d="M110.15000076293944,189.22000030517577 l-4.640000000000001,11.79 s-24.45,-8.79 -26,-10.37 s3.79,-3.5 4.82,-3.19 s5,1.36 6.44,1.18 s9.21,-4.11 9.21,-4.11 z" fill="#231f20" id="svg_25"/><path d="M105.51000076293946,201.51000030517577 a0.51,0.51 0 0 1 -0.17,0 c-2.51,-0.91 -24.6,-8.870000000000001 -26.21,-10.49 a1.3,1.3 0 0 1 -0.22000000000000003,-1.6900000000000002 c0.8500000000000001,-1.42 4.46,-2.6500000000000004 5.53,-2.33 s5,1.33 6.24,1.17 c1,-0.13 6,-2.5 9.05,-4.06 a0.5,0.5 0 0 1 0.43000000000000005,0 l10.2,4.7 a0.49000000000000005,0.49000000000000005 0 0 1 0.25,0.6300000000000001 l-4.640000000000001,11.79 A0.48000000000000004,0.48000000000000004 0 0 1 105.51000076293946,201.51000030517577 zm-21.53,-13.6 c-0.8500000000000001,0 -3.6100000000000003,0.8900000000000001 -4.22,1.9 a0.32000000000000006,0.32000000000000006 0 0 0 0.07,0.47000000000000003 c1.09,1.09 15.61,6.57 25.39,10.1 l4.29,-10.9 l-9.55,-4.4 c-1.4300000000000002,0.7200000000000001 -7.78,3.87 -9.15,4 c-1.56,0.19000000000000003 -5.71,-0.92 -6.66,-1.2 A0.42000000000000004,0.42000000000000004 0 0 0 83.98000076293945,187.91000030517577 z" fill="#231f20" id="svg_26"/><polygon points="154.48999404907227,156.85999298095703 162.2700080871582,162.64000701904297 156.56000137329102,170.06999969482422 147.92999649047852,163.92000579833984 154.48999404907227,156.85999298095703 " fill="#fff" id="svg_27"/><path d="M154.45000076293945,156.8600003051758 l7.78,5.78 l-5.71,7.43 l-8.63,-6.15 l6.5600000000000005,-7.06 m0,-1 a1,1 0 0 0 -0.7400000000000001,0.32000000000000006 l-6.55,7.06 a1,1 0 0 0 -0.27,0.78 a1,1 0 0 0 0.42000000000000004,0.7200000000000001 l8.63,6.14 a1,1 0 0 0 0.5800000000000001,0.19000000000000003 a1,1 0 0 0 0.8,-0.39000000000000007 l5.7,-7.43 a1,1 0 0 0 0.2,-0.7500000000000001 a1,1 0 0 0 -0.39000000000000007,-0.6600000000000001 l-7.79,-5.78 a1,1 0 0 0 -0.5900000000000001,-0.2 z" fill="#231f20" id="svg_28"/><path d="M162.14000076293945,161.59000030517578 L172.45000076293945,168.91000030517577 s-14.38,21.64 -16.29,22.79 s-2.49,-4.51 -1.9500000000000002,-5.43 s2.5300000000000002,-4.5600000000000005 2.6900000000000004,-6 s-1.78,-9.93 -1.78,-9.93 z" fill="#231f20" id="svg_29"/><path d="M155.68000076293944,192.3600003051758 a1.35,1.35 0 0 1 -0.9400000000000001,-0.42000000000000004 c-1.18,-1.17 -1.5,-5 -0.93,-5.93 s2.47,-4.51 2.62,-5.78 c0.11000000000000001,-1 -1,-6.37 -1.78,-9.76 a0.53,0.53 0 0 1 0.1,-0.42000000000000004 l7,-8.77 a0.5,0.5 0 0 1 0.6800000000000002,-0.1 l10.33,7.33 a0.49000000000000005,0.49000000000000005 0 0 1 0.13,0.6800000000000002 C171.45000076293945,171.43000030517578 158.39000076293945,190.9500003051758 156.45000076293945,192.13000030517577 A1.45,1.45 0 0 1 155.68000076293944,192.3600003051758 zm0,-21.87 c0.35000000000000003,1.56 1.9,8.48 1.7400000000000002,9.86 c-0.18000000000000002,1.55 -2.25,5.32 -2.7600000000000002,6.17 c-0.29000000000000004,0.49000000000000005 -0.12000000000000001,3.81 0.78,4.71 a0.33000000000000007,0.33000000000000007 0 0 0 0.48000000000000004,0 c1.31,-0.8 10.11,-13.58 15.870000000000001,-22.24 l-9.56,-6.77 z" fill="#231f20" id="svg_30"/><path d="M111.45000076293945,83.13000030517577 s-16.61,44.3 -12.28,47.53 s49,39.25 49,39.25 l10.95,-14.08 s-31.82,-23.85 -32.73,-26.69 s7.9,-43.2 7.9,-43.2 z" fill="#231f20" id="svg_31"/><path d="M148.13000076293946,170.43000030517578 a0.52,0.52 0 0 1 -0.32000000000000006,-0.11000000000000001 c-0.44000000000000006,-0.36000000000000004 -44.71,-36.05 -49,-39.24 c-4.5,-3.36 10.4,-43.54 12.12,-48.11 a0.51,0.51 0 0 1 0.52,-0.32000000000000006 L134.31000076293947,85.43000030517578 a0.5,0.5 0 0 1 0.35000000000000003,0.21000000000000002 a0.49000000000000005,0.49000000000000005 0 0 1 0.08000000000000002,0.39000000000000007 c-3.54,16.17 -8.56,40.95 -7.92,42.94 s20.31,17.26 32.56,26.44 a0.5,0.5 0 0 1 0.09000000000000002,0.7000000000000001 l-11,14.08 a0.46,0.46 0 0 1 -0.3400000000000001,0.19000000000000003 zm-36.4,-86.74 c-6.36,17 -15.23,44.42 -12.31,46.59 c4.07,3 44.19,35.37 48.62,38.94 l10.34,-13.28 c-4.73,-3.55 -31.6,-23.82 -32.51,-26.63 s6.46,-36.87 7.78,-42.92 z" fill="#231f20" id="svg_32"/><path d="M148.06000076293947,89.80000030517579 l-32.26,93 s-20.68,-5.88 -19.26,-6.94 c-1.7600000000000002,1.31 21.51,-63.13 27.58,-90.1 z" fill="#231f20" id="svg_33"/><path d="M115.80000076293945,183.27000030517578 a0.30000000000000004,0.30000000000000004 0 0 1 -0.13,0 c-8.84,-2.51 -19.43,-5.79 -19.69,-7.17 a0.81,0.81 0 0 1 0,-0.22000000000000003 c-0.09000000000000002,-1 1.13,-5 7.43,-24 c7,-21.18 16.61,-50.19 20.22,-66.24 a0.49000000000000005,0.49000000000000005 0 0 1 0.5700000000000001,-0.38000000000000006 l23.94,4.06 a0.52,0.52 0 0 1 0.35000000000000003,0.23 a0.56,0.56 0 0 1 0,0.42000000000000004 l-32.26,93 A0.5,0.5 0 0 1 115.80000076293945,183.27000030517578 zm-18.77,-7.37 c1.23,1 10.09,3.88 18.46,6.27 l31.9,-92 l-22.89,-3.88 c-3.7,16.19 -13.19,44.87 -20.14,65.88 c-3.84,11.6 -7.18,21.69 -7.41,23.37 A0.47000000000000003,0.47000000000000003 0 0 1 97.03000076293947,175.90000030517578 z" fill="#231f20" id="svg_34"/><path d="M155.71000076293944,66.33000030517579 l9.31,-8.92 c-5,-8.58 -6.78,-14.39 -10.23,-16.19 c-4.46,-3.08 -20.25,-1 -29.74,-0.52 A29.3,29.3 0 0 0 116.13000076293946,42.43000030517578 a53,53 0 0 0 -17,10.1 l11.51,14.2 l2.74,-4.16 s-1.62,8.11 -5.42,24.54 a99.56,99.56 0 0 1 39.58,5.78 S155.70000076293945,69.16000030517579 155.71000076293944,66.33000030517579 z" fill="#279e72" id="svg_35"/><path d="M136.30000076293945,68.78000030517578 a0.48000000000000004,0.48000000000000004 0 0 1 -0.24000000000000002,-0.06000000000000001 a0.49000000000000005,0.49000000000000005 0 0 1 -0.2,-0.6800000000000002 c0.1,-0.19000000000000003 10.42,-19.32 7,-26.68 c-0.78,-1.6800000000000002 -3.15,-3.16 -5.76,-3.6 a8.1,8.1 0 0 0 -7.35,2.2800000000000002 a27.31,27.31 0 0 0 -7.94,17.44 a23.08,23.08 0 0 0 0.9,8.24 a0.5,0.5 0 0 1 -0.9400000000000001,0.33000000000000007 c-0.05000000000000001,-0.14 -4.84,-14.07 7.26,-26.7 a9.07,9.07 0 0 1 8.23,-2.5700000000000003 c3,0.49000000000000005 5.58,2.16 6.51,4.16 c3.62,7.82 -6.61,26.78 -7.05,27.58 A0.49000000000000005,0.49000000000000005 0 0 1 136.30000076293945,68.78000030517578 z" fill="#231f20" id="svg_36"/><path d="M122.45000076293945,9.180000305175781 s-6.23,0.09000000000000002 -3.29,7.06 C121.05000076293945,20.770000305175785 134.45000076293945,21.520000305175785 134.45000076293945,21.520000305175785 S134.39000076293945,13.110000305175788 122.45000076293945,9.180000305175781 z" fill="#231f20" id="svg_37"/><path d="M134.45000076293945,22.020000305175785 h0 c-0.56,0 -13.7,-0.8200000000000001 -15.71,-5.59 c-1,-2.45 -1.1,-4.39 -0.19000000000000003,-5.78 a5.09,5.09 0 0 1 3.93,-2 l0.16000000000000003,0 c12.18,4 12.34,12.46 12.34,12.82 a0.48000000000000004,0.48000000000000004 0 0 1 -0.16000000000000003,0.36000000000000004 A0.48000000000000004,0.48000000000000004 0 0 1 134.45000076293945,22.020000305175785 zM122.35000076293946,9.680000305175781 a4.1,4.1 0 0 0 -3,1.52 c-0.7100000000000001,1.09 -0.6200000000000001,2.72 0.28,4.85 c1.4,3.31 10.3,4.640000000000001 14.28,4.94 C133.64000076293945,19.12000030517578 132.14000076293945,12.930000305175781 122.35000076293946,9.680000305175781 z" fill="#231f20" id="svg_38"/><path d="M128.14000076293945,16.110000305175788 a8.67,8.67 0 0 1 0.53,-0.81 c2.12,-3 7.74,-2 10.69,-1.13 a16.74,16.74 0 0 1 7.47,4.07 c1.62,1.6500000000000001 3.13,4.33 2.83,6.73 s-1.82,5.22 -3,7.24 a8.57,8.57 0 0 1 -2.8200000000000003,3.12 a8.92,8.92 0 0 1 -4,1 a15.83,15.83 0 0 1 -8.7,-1.61 a10.4,10.4 0 0 1 -5.24,-7.78 A18.5,18.5 0 0 1 128.14000076293945,16.110000305175788 z" fill="#fff" id="svg_39"/><path d="M138.36000076293945,36.84000030517578 a14.93,14.93 0 0 1 -7.53,-1.71 c-2.5700000000000003,-1.46 -5.27,-4.5600000000000005 -5.5,-8.19 a19.07,19.07 0 0 1 2.37,-11.1 a9.33,9.33 0 0 1 0.55,-0.8400000000000001 c2.44,-3.42 8.68,-2.07 11.25,-1.33 a17.1,17.1 0 0 1 7.7,4.21 c1.58,1.61 3.31,4.44 3,7.15 a20.55,20.55 0 0 1 -3.11,7.45 a7.54,7.54 0 0 1 -7.25,4.32 C139.31000076293947,36.83000030517579 138.83000076293945,36.84000030517578 138.36000076293945,36.84000030517578 zm-4.5600000000000005,-23 c-1.8900000000000001,0 -3.73,0.42000000000000004 -4.71,1.79 c-0.18000000000000002,0.25 -0.35000000000000003,0.51 -0.51,0.77 h0 a18.17,18.17 0 0 0 -2.23,10.5 a9.88,9.88 0 0 0 5,7.36 c2.15,1.23 4.9,1.73 8.41,1.54 a8.41,8.41 0 0 0 3.79,-0.8900000000000001 a8.2,8.2 0 0 0 2.64,-2.93 a19.73,19.73 0 0 0 3,-7 c0.27,-2.2 -1.15,-4.75 -2.6900000000000004,-6.3100000000000005 a16.09,16.09 0 0 0 -7.24,-3.94 A21.25,21.25 0 0 0 133.80000076293945,13.810000305175777 zm-5.66,2.3 h0 z" fill="#231f20" id="svg_40"/><path d="M129.66000076293946,36.10000030517578 l-0.8700000000000001,7.22 s2,4.58 6.71,3.68 a9.56,9.56 0 0 0 6.59,-4.93 l0.5900000000000001,-13.19 s-3.38,-2 -2,-9.5 A23.22,23.22 0 0 1 128.45000076293945,20.48000030517578 s-2.52,8.06 -2.13,11.71 S129.66000076293946,36.10000030517578 129.66000076293946,36.10000030517578 z" fill="#fff" id="svg_41"/><path d="M134.29000076293946,47.630000305175784 c-4.15,0 -6,-4.06 -6,-4.1 a0.51,0.51 0 0 1 0,-0.27 l0.8200000000000001,-6.76 a4.5600000000000005,4.5600000000000005 0 0 1 -3.29,-4.25 c-0.39000000000000007,-3.72 2,-11.59 2.15,-11.92 a0.53,0.53 0 0 1 0.5900000000000001,-0.36000000000000004 A22.9,22.9 0 0 0 140.45000076293945,18.910000305175785 a0.51,0.51 0 0 1 0.53,0.07 a0.5,0.5 0 0 1 0.18000000000000002,0.5 c-1.29,7 1.73,8.94 1.7600000000000002,9 a0.5,0.5 0 0 1 0.24000000000000002,0.46 l-0.5800000000000001,13.19 a0.6500000000000001,0.6500000000000001 0 0 1 0,0.2 a10.05,10.05 0 0 1 -7,5.22 A7.49,7.49 0 0 1 134.29000076293946,47.630000305175784 zm-5,-4.39 c0.3400000000000001,0.6900000000000002 2.18,4 6.08,3.25 a9.17,9.17 0 0 0 6.18,-4.55 l0.5700000000000001,-12.81 c-0.78,-0.6400000000000001 -3,-3 -2.12,-9 a24.17,24.17 0 0 1 -11.21,0.8900000000000001 c-0.51,1.7000000000000002 -2.3,8 -2,11.07 s2.77,3.43 2.87,3.44 a0.53,0.53 0 0 1 0.47000000000000003,0.5800000000000001 z" fill="#231f20" id="svg_42"/><path d="M139.95000076293945,28.51000030517578 a3.11,3.11 0 0 1 1.11,-1.58 a5.38,5.38 0 0 1 1.6800000000000002,-0.7400000000000001 a2.15,2.15 0 0 1 1,-0.13 a2,2 0 0 1 0.6500000000000001,0.27 A2.39,2.39 0 0 1 145.45000076293945,27.570000305175782 a2.89,2.89 0 0 1 0,1.34 a5.68,5.68 0 0 1 -0.43000000000000005,1.4 a3.73,3.73 0 0 1 -5,1.7000000000000002 " fill="#fff" id="svg_43"/><path d="M141.70000076293945,32.910000305175785 a4.3100000000000005,4.3100000000000005 0 0 1 -1.9,-0.44000000000000006 a0.52,0.52 0 0 1 -0.23,-0.7000000000000001 a0.53,0.53 0 0 1 0.6900000000000002,-0.23 a3.2800000000000002,3.2800000000000002 0 0 0 2.46,0.18000000000000002 a3.25,3.25 0 0 0 1.84,-1.6300000000000001 a4.86,4.86 0 0 0 0.39000000000000007,-1.28 a2.37,2.37 0 0 0 0,-1.09 a2,2 0 0 0 -0.8500000000000001,-1 a1.26,1.26 0 0 0 -0.47000000000000003,-0.2 a1.8,1.8 0 0 0 -0.7600000000000001,0.11000000000000001 a5,5 0 0 0 -1.52,0.6700000000000002 a2.56,2.56 0 0 0 -0.93,1.31 a0.52,0.52 0 0 1 -1,-0.29000000000000004 a3.56,3.56 0 0 1 1.31,-1.85 a5.890000000000001,5.890000000000001 0 0 1 1.84,-0.8300000000000001 a2.62,2.62 0 0 1 1.22,-0.14 a2.36,2.36 0 0 1 0.8400000000000001,0.3400000000000001 A2.84,2.84 0 0 1 145.95000076293945,27.43000030517578 a3.25,3.25 0 0 1 0,1.58 a5.5,5.5 0 0 1 -0.47000000000000003,1.54 a4.24,4.24 0 0 1 -2.44,2.15 A4.19,4.19 0 0 1 141.70000076293945,32.910000305175785 z" fill="#231f20" id="svg_44"/><path d="M129.45000076293945,39.70000030517578 a6.06,6.06 0 0 0 4.86,-1.33 c2.16,-1.8900000000000001 2,-3 2,-3 s-3.41,1.6600000000000001 -6.44,0.9 z" fill="#231f20" id="svg_45"/><path d="M130.36000076293945,40.270000305175785 a5.46,5.46 0 0 1 -1.06,-0.09000000000000002 a0.5,0.5 0 0 1 -0.4,-0.55 l0.46,-3.47 a0.45,0.45 0 0 1 0.21000000000000002,-0.35000000000000003 a0.47000000000000003,0.47000000000000003 0 0 1 0.4,-0.07 c2.8200000000000003,0.7100000000000001 6.07,-0.8500000000000001 6.11,-0.8600000000000001 a0.5,0.5 0 0 1 0.46,0 a0.51,0.51 0 0 1 0.25,0.38000000000000006 c0,0.15000000000000002 0.08000000000000002,1.48 -2.2,3.47 A6.36,6.36 0 0 1 130.36000076293945,40.270000305175785 zm-0.4,-1 a5.51,5.51 0 0 0 4,-1.27 a7,7 0 0 0 1.57,-1.81 a11,11 0 0 1 -5.23,0.6400000000000001 z" fill="#231f20" id="svg_46"/><path d="M132.27000076293945,25.12000030517578 s-2.75,3.45 -2.22,4.13 s2.19,0.4 2.19,0.4 " fill="#fff" id="svg_47"/><path d="M131.45000076293945,30.210000305175782 a2.2800000000000002,2.2800000000000002 0 0 1 -1.82,-0.6600000000000001 c-0.51,-0.6500000000000001 0.24000000000000002,-2.25 2.23,-4.74 a0.5,0.5 0 1 1 0.78,0.6300000000000001 C131.45000076293945,26.950000305175777 130.45000076293945,28.630000305175784 130.45000076293945,29.020000305175785 a2.83,2.83 0 0 0 1.6700000000000002,0.14 a0.5,0.5 0 1 1 0.17,1 A5.45,5.45 0 0 1 131.45000076293945,30.210000305175782 z" fill="#231f20" id="svg_48"/><path d="M131.50000076293946,32.23000030517578 s2.64,1.11 3.6,-1.47 " fill="#fff" id="svg_49"/><path d="M132.77000076293945,32.96000030517578 a4.46,4.46 0 0 1 -1.47,-0.27 a0.5,0.5 0 0 1 0.39000000000000007,-0.93 a2.7600000000000002,2.7600000000000002 0 0 0 1.9,0 a2.05,2.05 0 0 0 1.05,-1.22 a0.5,0.5 0 1 1 0.93,0.35000000000000003 a3,3 0 0 1 -1.59,1.79 A3.12,3.12 0 0 1 132.77000076293945,32.96000030517578 z" fill="#231f20" id="svg_50"/><ellipse cx="193.03000259399414" cy="265.84000396728516" rx="0.8500000238418579" ry="0.6100000143051147" transform="rotate(-72.94000244140625 2.0600013732910254,183.89999389648438) " fill="#231f20" id="svg_51"/><ellipse cx="182.6400032043457" cy="258.9199905395508" rx="0.8500000238418579" ry="0.6100000143051147" transform="rotate(-72.94000244140625 -1.9699974060058447,177.47000122070312) " fill="#231f20" id="svg_52"/><path d="M140.16000076293946,23.190000305175786 l9.44,2 s5,-12.37 -4.72,-17.92 c-11,-6.27 -16.69,2.63 -16.69,2.63 z" fill="#fff" id="svg_53"/><path d="M149.60000076293946,25.710000305175782 H149.45000076293945 l-9.43,-2 a0.5,0.5 0 0 1 -0.28,-0.16000000000000003 l-12,-13.27 a0.51,0.51 0 0 1 -0.05000000000000001,-0.6300000000000001 c0.06000000000000001,-0.09000000000000002 6.09,-9.24 17.38,-2.79 c4.13,2.36 6.3,6.33 6.25,11.48 A21.37,21.37 0 0 1 150.08000076293945,25.43000030517578 A0.51,0.51 0 0 1 149.60000076293946,25.710000305175782 zm-9.17,-3 l8.84,1.8800000000000001 a21.08,21.08 0 0 0 1.09,-6.32 c0,-4.8 -1.9,-8.35 -5.74,-10.55 c-9.37,-5.35 -14.64,0.6300000000000001 -15.77,2.14 z" fill="#231f20" id="svg_54"/><path d="M140.16000076293946,23.190000305175786 s-1.87,-10 -12,-13.28 L122.45000076293945,9.180000305175781 a32.19,32.19 0 0 1 8.27,9.83 C134.30000076293945,25.330000305175787 140.16000076293946,23.190000305175786 140.16000076293946,23.190000305175786 z" fill="#fff" id="svg_55"/><path d="M137.84000076293944,24.04000030517578 c-2.18,0 -5.33,-0.8 -7.6,-4.77 a32,32 0 0 0 -8.12,-9.67 a0.52,0.52 0 0 1 -0.18000000000000002,-0.6100000000000001 a0.51,0.51 0 0 1 0.54,-0.32000000000000006 l5.78,0.7300000000000001 c10.36,3.4 12.39,13.59 12.41,13.69 a0.51,0.51 0 0 1 -0.33000000000000007,0.5800000000000001 A8,8 0 0 1 137.84000076293944,24.04000030517578 zM124.13000076293946,9.910000305175785 a35.92,35.92 0 0 1 7,8.85 c2.83,5 7,4.4 8.41,4.07 c-0.52,-2 -3.06,-9.64 -11.52,-12.43 z" fill="#231f20" id="svg_56"/><path d="M109.38000076293946,137.09000030517578 l-0.15000000000000002,0 a0.5,0.5 0 0 1 -0.32000000000000006,-0.6300000000000001 l8.67,-28.13 a0.5,0.5 0 0 1 0.6200000000000001,-0.33000000000000007 a0.51,0.51 0 0 1 0.33000000000000007,0.6300000000000001 l-8.67,28.13 A0.51,0.51 0 0 1 109.38000076293946,137.09000030517578 z" fill="#fff" id="svg_57"/><path d="M126.54000076293946,153.82000030517577 a0.48000000000000004,0.48000000000000004 0 0 1 -0.2,0 a0.49000000000000005,0.49000000000000005 0 0 1 -0.26,-0.6500000000000001 l7,-16.74 a0.5,0.5 0 0 1 0.6500000000000001,-0.27 a0.51,0.51 0 0 1 0.27,0.6500000000000001 l-7,16.75 A0.5,0.5 0 0 1 126.54000076293946,153.82000030517577 z" fill="#fff" id="svg_58"/><path d="M153.01000076293946,60.62000030517578 s14.44,29 21.13,40.9 c0,0 1.42,10.41 7.91,9.84 c9.23,-0.8200000000000001 7.6,-6.69 7.6,-6.69 L184.45000076293945,99.62000030517578 L165.02000076293945,57.43000030517578 " fill="#fff" id="svg_59"/><path d="M181.53000076293947,111.88000030517577 c-6.15,0 -7.7,-9.08 -7.87,-10.2 c-6.640000000000001,-11.79 -21,-40.55 -21.1,-40.84 A0.5,0.5 0 0 1 153.45000076293945,60.43000030517578 c0.15000000000000002,0.29000000000000004 14.52,29.17 21.13,40.88 a0.6400000000000001,0.6400000000000001 0 0 1 0.06000000000000001,0.18000000000000002 c0,0.1 1.44,9.93 7.37,9.41 c3.24,-0.29000000000000004 5.43,-1.23 6.52,-2.79 a4.25,4.25 0 0 0 0.6700000000000002,-3.14 l-5.08,-5 a0.49000000000000005,0.49000000000000005 0 0 1 -0.11000000000000001,-0.14 l-19.45,-42.21 a0.5,0.5 0 0 1 0.25,-0.6600000000000001 a0.49000000000000005,0.49000000000000005 0 0 1 0.6600000000000001,0.24000000000000002 l19.41,42.12 l5.12,5 a0.55,0.55 0 0 1 0.14,0.23 a5.23,5.23 0 0 1 -0.79,4.1 c-1.26,1.82 -3.7,2.9 -7.25,3.21 z" fill="#231f20" id="svg_60"/><path d="M153.01000076293946,79.71000030517578 s-8.29,-9.38 -7.47,-21.75 s5,-19.09 5,-19.09 l4.26,1.07 s-4.63,6.87 -5.09,18.32 c-0.37000000000000005,9.07 4.73,17 4.73,17 z" fill="#231f20" id="svg_61"/><path d="M153.01000076293946,80.21000030517578 a0.5,0.5 0 0 1 -0.38000000000000006,-0.17 c-0.08000000000000002,-0.1 -8.41,-9.68 -7.59,-22.12 s4.9,-19 5.07,-19.31 a0.49000000000000005,0.49000000000000005 0 0 1 0.54,-0.23 L154.91000076293946,39.43000030517578 a0.52,0.52 0 0 1 0.35000000000000003,0.31000000000000005 a0.51,0.51 0 0 1 -0.06000000000000001,0.45 c0,0.07 -4.5600000000000005,6.91 -5,18.07 c-0.36000000000000004,8.8 4.6,16.67 4.65,16.75 a0.48000000000000004,0.48000000000000004 0 0 1 0,0.42000000000000004 L153.45000076293945,79.86000030517579 a0.53,0.53 0 0 1 -0.37000000000000005,0.3400000000000001 zM150.78000076293947,39.43000030517578 c-0.8,1.46 -4,7.93 -4.74,18.55 c-0.6800000000000002,10.12 4.94,18.31 6.77,20.69 l1.08,-3.3200000000000003 c-0.81,-1.33 -5,-8.69 -4.69,-17.12 a39.39,39.39 0 0 1 4.8100000000000005,-18 z" fill="#231f20" id="svg_62"/><path d="M111.39000076293945,72.64000030517579 s1.4300000000000002,-17 11.37,-32.26 l-4.19,0.5700000000000001 s-5.72,3.08 -8.28,15.91 C107.90000076293944,68.85000030517578 111.39000076293945,72.64000030517579 111.39000076293945,72.64000030517579 z" fill="#231f20" id="svg_63"/><path d="M111.39000076293945,73.14000030517579 a0.49000000000000005,0.49000000000000005 0 0 1 -0.37000000000000005,-0.16000000000000003 c-0.15000000000000002,-0.16000000000000003 -3.63,-4.11 -1.22,-16.22 c2.58,-12.91 8.29,-16.12 8.54,-16.25 l0.16000000000000003,0 l4.19,-0.5700000000000001 a0.51,0.51 0 0 1 0.49000000000000005,0.23 a0.49000000000000005,0.49000000000000005 0 0 1 0,0.53 c-9.75,15 -11.27,31.87 -11.29,32 a0.47000000000000003,0.47000000000000003 0 0 1 -0.33000000000000007,0.42000000000000004 A0.45,0.45 0 0 1 111.39000076293945,73.14000030517579 zM118.74000076293945,41.43000030517578 c-0.6500000000000001,0.41000000000000003 -5.640000000000001,3.89 -8,15.53 c-1.6,8 -0.53,12.25 0.29000000000000004,14.14 c0.6000000000000001,-4.42 3,-17.77 10.69,-30.08 z" fill="#231f20" id="svg_64"/><path d="M154.36000076293945,92.13000030517577 a0.5,0.5 0 0 1 -0.5,-0.46 a29,29 0 0 1 4,-17 a0.5,0.5 0 1 1 0.8500000000000001,0.52 a28.06,28.06 0 0 0 -3.88,16.4 a0.49000000000000005,0.49000000000000005 0 0 1 -0.46,0.53 z" fill="#fff" id="svg_65"/><path d="M118.05000076293945,104.61000030517579 a0.48000000000000004,0.48000000000000004 0 0 1 -0.49000000000000005,-0.48000000000000004 c0,-0.26 -0.18000000000000002,-6.26 0,-9.09 a0.49000000000000005,0.49000000000000005 0 0 1 0.53,-0.47000000000000003 a0.5,0.5 0 0 1 0.46,0.53 c-0.18000000000000002,2.7800000000000002 0,8.94 0,9 a0.5,0.5 0 0 1 -0.48000000000000004,0.51 z" fill="#fff" id="svg_66"/><path d="M141.70000076293945,102.03000030517578 a0.51,0.51 0 0 1 -0.36000000000000004,-0.15000000000000002 c-4.25,-4.41 -3.55,-8.93 -3.52,-9.12 a0.51,0.51 0 0 1 0.5700000000000001,-0.41000000000000003 a0.49000000000000005,0.49000000000000005 0 0 1 0.41000000000000003,0.5700000000000001 a10.5,10.5 0 0 0 3.26,8.27 a0.5,0.5 0 0 1 0,0.7100000000000001 A0.48000000000000004,0.48000000000000004 0 0 1 141.70000076293945,102.03000030517578 z" fill="#fff" id="svg_67"/><path d="M70.98000076293945,34.93000030517578 a0.5,0.5 0 0 1 -0.49000000000000005,-0.4 c-0.46,-2.3 2.44,-4.6 2.56,-4.7 a0.5,0.5 0 0 1 0.7000000000000001,0.08000000000000002 a0.52,0.52 0 0 1 -0.08000000000000002,0.7100000000000001 c-0.7100000000000001,0.55 -2.48,2.3 -2.2,3.71 a0.49000000000000005,0.49000000000000005 0 0 1 -0.39000000000000007,0.5900000000000001 z" fill="#231f20" id="svg_68"/><rect x="141.37000274658203" y="37.58000183105469" width="23.049999237060547" height="12.199999809265137" rx="1.5" transform="rotate(9.880000114440918 -29.599998474120973,-85.95999908447266) " fill="#fff" id="svg_69"/><path d="M137.03000076293947,81.32000030517577 a2,2 0 0 1 -0.3400000000000001,0 h0 l-19.76,-3.44 a2.06,2.06 0 0 1 -1.29,-0.8200000000000001 a2,2 0 0 1 -0.3400000000000001,-1.5 l1.58,-9.06 a2,2 0 0 1 0.8200000000000001,-1.29 a2,2 0 0 1 1.5,-0.3400000000000001 l19.75,3.44 a2.06,2.06 0 0 1 1.3,0.8200000000000001 a2,2 0 0 1 0.33000000000000007,1.5 l-1.58,9.06 A2,2 0 0 1 137.03000076293947,81.32000030517577 zm-0.17,-1 a1,1 0 0 0 1.1600000000000001,-0.81 l1.58,-9.06 a1,1 0 0 0 -0.8200000000000001,-1.1600000000000001 l-19.75,-3.44 a1,1 0 0 0 -1.1600000000000001,0.81 l-1.58,9.06 a1,1 0 0 0 0.17,0.7500000000000001 a1,1 0 0 0 0.6400000000000001,0.41000000000000003 l19.76,3.44 z" fill="#231f20" id="svg_70"/><path d="M149.20000129699707,34.450000991821284 h7.47 a1.73,1.73 0 0 1 1.73,1.73 v1.18 a0,0 0 0 1 0,0 H147.46000129699706 a0,0 0 0 1 0,0 v-1.18 a1.73,1.73 0 0 1 1.73,-1.73 z" transform="rotate(9.880000114440918 -30.859998703003043,-86.29000091552733) " fill="#fff" id="svg_71"/><path d="M134.37000076293944,68.49000030517578 h-0.08000000000000002 l-10.77,-1.8800000000000001 a0.49000000000000005,0.49000000000000005 0 0 1 -0.32000000000000006,-0.2 a0.52,0.52 0 0 1 -0.09000000000000002,-0.38000000000000006 l0.2,-1.1600000000000001 a2.25,2.25 0 0 1 2.59,-1.82 l7.35,1.28 a2.27,2.27 0 0 1 1.45,0.92 a2.25,2.25 0 0 1 0.37000000000000005,1.6700000000000002 l-0.2,1.1600000000000001 a0.51,0.51 0 0 1 -0.21000000000000002,0.32000000000000006 A0.48000000000000004,0.48000000000000004 0 0 1 134.37000076293944,68.49000030517578 zm-10.19,-2.7800000000000002 l9.79,1.71 l0.11000000000000001,-0.6700000000000002 a1.19,1.19 0 0 0 -0.2,-0.92 a1.24,1.24 0 0 0 -0.8,-0.51 l-7.36,-1.28 a1.23,1.23 0 0 0 -1.42,1 z" fill="#231f20" id="svg_72"/><circle cx="127.94000625610352" cy="73.06999969482422" r="5.139999866485596" fill="#fff" id="svg_73"/><path d="M127.95000076293945,78.71000030517578 a6.48,6.48 0 0 1 -1,-0.08000000000000002 a5.67,5.67 0 0 1 -4.59,-6.53 a5.640000000000001,5.640000000000001 0 1 1 11.12,1.9300000000000002 h0 A5.640000000000001,5.640000000000001 0 0 1 127.95000076293945,78.71000030517578 zm0,-10.29 a4.640000000000001,4.640000000000001 0 0 0 -0.78,9.22 a4.640000000000001,4.640000000000001 0 1 0 1.59,-9.15 A4.43,4.43 0 0 0 127.93000076293944,68.43000030517578 zm5.08,5.53 h0 z" fill="#231f20" id="svg_74"/><circle cx="127.94000625610352" cy="73.06999969482422" r="3.0899999141693115" fill="#fff" id="svg_75"/><path d="M127.94000076293946,76.66000030517577 a4.18,4.18 0 0 1 -0.6100000000000001,0 A3.6100000000000003,3.6100000000000003 0 0 1 124.45000076293945,72.43000030517578 a3.56,3.56 0 0 1 1.48,-2.3200000000000003 a3.49,3.49 0 0 1 2.68,-0.6000000000000001 a3.59,3.59 0 0 1 2.92,4.15 h0 A3.59,3.59 0 0 1 127.94000076293946,76.66000030517577 zm0,-6.19 a2.6,2.6 0 1 0 0.45,0 A2.2800000000000002,2.2800000000000002 0 0 0 127.94000076293946,70.43000030517578 zm3,3.13 h0 z" fill="#231f20" id="svg_76"/><path d="M191.45000076293945,190.8900003051758 a0.51,0.51 0 0 1 -0.49000000000000005,-0.4 l-9.25,-45.44 a0.51,0.51 0 0 1 0.39000000000000007,-0.5900000000000001 a0.5,0.5 0 0 1 0.5900000000000001,0.39000000000000007 l9.25,45.44 a0.51,0.51 0 0 1 -0.39000000000000007,0.5900000000000001 z" fill="#d1d3d4" id="svg_77"/><path d="M210.51000076293946,190.8900003051758 a0.5,0.5 0 0 1 -0.49000000000000005,-0.4 l-9.82,-45.43 a0.5,0.5 0 0 1 0.38000000000000006,-0.6000000000000001 a0.52,0.52 0 0 1 0.6000000000000001,0.39000000000000007 l9.82,45.43 a0.5,0.5 0 0 1 -0.38000000000000006,0.6000000000000001 z" fill="#d1d3d4" id="svg_78"/><path d="M221.26000076293946,172.43000030517578 a0.5,0.5 0 0 1 -0.39000000000000007,-0.18000000000000002 a0.52,0.52 0 0 1 0.07,-0.7100000000000001 l8.22,-6.69 a0.5,0.5 0 0 1 0.6300000000000001,0.78 l-8.21,6.69 A0.56,0.56 0 0 1 221.26000076293946,172.43000030517578 z" fill="#d1d3d4" id="svg_79"/></g></g></svg>