<svg xmlns="http://www.w3.org/2000/svg" width="334" height="225"><rect id="backgroundrect" width="100%" height="100%" x="0" y="0" fill="none" stroke="none"/><g class="currentLayer" style=""><title>Layer 1</title><g id="_008" data-name="008" class=""><path d="M53.39631607055664,68.25111541748046 h-0.08000000000000002 a0.46,0.46 0 0 1 -0.38000000000000006,-0.53 l9.66,-57.2 l-30.6,4 l-2.56,10.2 a0.45,0.45 0 0 1 -0.4,0.35000000000000003 L3.516316070556641,27.701115417480466 a0.46,0.46 0 1 1 -0.1,-0.92 l25.21,-2.59 l2.55,-10.2 a0.47000000000000003,0.47000000000000003 0 0 1 0.39000000000000007,-0.35000000000000003 l31.53,-4.12 a0.47000000000000003,0.47000000000000003 0 0 1 0.39000000000000007,0.13 a0.45,0.45 0 0 1 0.12000000000000001,0.4 L53.87631607055664,67.86111541748046 A0.46,0.46 0 0 1 53.39631607055664,68.25111541748046 z" fill="#d1d3d4" id="svg_1"/><path d="M333.29631607055666,128.09111541748047 h-0.08000000000000002 L0.38631607055663864,72.40111541748047 a0.46,0.46 0 0 1 -0.38000000000000006,-0.53 a0.46,0.46 0 0 1 0.53,-0.38000000000000006 l332.83,55.72 a0.46,0.46 0 0 1 -0.07,0.91 z" fill="#d1d3d4" id="svg_2"/><ellipse cx="41.29631423950195" cy="113.7411117553711" rx="11.430000305175781" ry="3.299999952316284" fill="#d1d3d4" id="svg_3"/><path d="M285.62631607055664,209.89111541748048 l11.71,3.8200000000000003 s3,11.44 4.36,10.620000000000001 s1.09,-22.34 1.09,-22.34 l-16.35,-5.72 " fill="#fff" id="svg_4"/><path d="M301.54631607055666,224.8711154174805 a1,1 0 0 1 -0.32000000000000006,-0.06000000000000001 c-1.51,-0.6200000000000001 -3.59,-8 -4.3,-10.71 L285.4663160705566,210.40111541748047 a0.51,0.51 0 0 1 -0.32000000000000006,-0.6300000000000001 a0.5,0.5 0 0 1 0.6300000000000001,-0.32000000000000006 l11.72,3.81 a0.49000000000000005,0.49000000000000005 0 0 1 0.32000000000000006,0.35000000000000003 c1.17,4.45 2.8600000000000003,9.44 3.68,10.22 c0.6200000000000001,-1.4100000000000001 0.9,-11.79 0.79,-21.45 l-16,-5.6 a0.5,0.5 0 0 1 0.33000000000000007,-0.9500000000000001 l16.34,5.72 a0.52,0.52 0 0 1 0.3400000000000001,0.47000000000000003 c0.1,8.14 0.06000000000000001,21.93 -1.33,22.77 A0.8700000000000001,0.8700000000000001 0 0 1 301.54631607055666,224.8711154174805 z" fill="#231f20" id="svg_5"/><path d="M213.28631607055664,197.82111541748046 l-4.91,9.870000000000001 s-16.51,-2.56 -15.09,0.30000000000000004 s23.52,16 23.52,16 l8.86,-18.55 " fill="#fff" id="svg_6"/><path d="M216.80631607055665,224.51111541748048 a0.52,0.52 0 0 1 -0.25,-0.07 c-2.2800000000000002,-1.36 -22.27,-13.33 -23.72,-16.23 a1.07,1.07 0 0 1 0.06000000000000001,-1.15 c1.34,-1.83 11.53,-0.47000000000000003 15.2,0.08000000000000002 l4.75,-9.55 a0.5,0.5 0 0 1 0.6700000000000002,-0.22000000000000003 a0.5,0.5 0 0 1 0.22000000000000003,0.6700000000000002 L208.87631607055664,207.92111541748048 a0.51,0.51 0 0 1 -0.52,0.27 c-7.42,-1.15 -14.24,-1.4 -14.61,-0.53 h0 a0.24000000000000002,0.24000000000000002 0 0 0 0,0.1 c1,2 14,10.26 22.86,15.54 l8.620000000000001,-18.06 a0.5,0.5 0 0 1 0.91,0.43000000000000005 l-8.870000000000001,18.55 a0.53,0.53 0 0 1 -0.30000000000000004,0.27 z" fill="#231f20" id="svg_7"/><path d="M238.22631607055666,125.45111541748048 l-28.87,74.09 l16.34,14.17 L259.2063160705566,158.40111541748047 s-4.08,29.57 4.35,41.13 C273.09631607055667,212.62111541748047 288.07631607055663,213.40111541748047 288.07631607055663,213.40111541748047 l3,-17.43 s-13.16,-3.9 -12.8,-19.16 s4.36,-41.4 4.36,-41.4 z" fill="#231f20" id="svg_8"/><path d="M255.18631607055664,51.12111541748047 S251.17631607055665,56.40111541748047 251.87631607055664,57.60111541748047 s3.24,0.6000000000000001 3.24,0.6000000000000001 " fill="#fff" id="svg_9"/><path d="M253.74631607055665,58.85111541748047 a2.5300000000000002,2.5300000000000002 0 0 1 -2.3200000000000003,-1 c-0.7600000000000001,-1.33 2.1,-5.36 3.36,-7 a0.5,0.5 0 0 1 0.8,0.6100000000000001 c-2,2.63 -3.54,5.41 -3.29,5.93 s2,0.52 2.6900000000000004,0.35000000000000003 a0.5,0.5 0 0 1 0.6000000000000001,0.38000000000000006 a0.5,0.5 0 0 1 -0.37000000000000005,0.6000000000000001 A7.23,7.23 0 0 1 253.74631607055665,58.85111541748047 z" fill="#231f20" id="svg_10"/><path d="M213.52631607055665,85.45111541748047 s1.6900000000000002,3.91 12,5.14 c5.55,0.6600000000000001 19.69,1.11 19.69,1.11 l8.77,-13.23 s-16.75,10.89 -43.57,-2 C197.78631607055664,70.40111541748047 213.52631607055665,85.45111541748047 213.52631607055665,85.45111541748047 z" fill="#fff" id="svg_11"/><path d="M245.25631607055664,92.20111541748048 h0 c-0.14,0 -14.22,-0.46 -19.73,-1.12 c-9.71,-1.1400000000000001 -12,-4.67 -12.38,-5.33 c-3.49,-3.34 -9.07,-9.12 -7.92,-10.78 c0.5900000000000001,-0.8500000000000001 2.17,-0.54 5.47,1 c26.23,12.620000000000001 42.91,2.14 43.08,2 a0.5,0.5 0 0 1 0.6900000000000002,0.6900000000000002 l-8.77,13.24 A0.51,0.51 0 0 1 245.25631607055664,92.20111541748048 zm-31.27,-7 c0,0.07 1.83,3.6900000000000004 11.64,4.85 c5,0.6000000000000001 17.36,1 19.37,1.1 l7.54,-11.37 c-5,2.34 -20.45,7.6 -42.29,-2.91 c-3.63,-1.7400000000000002 -4.21,-1.37 -4.23,-1.36 c-0.30000000000000004,0.78 3.29,5.16 7.86,9.54 A0.53,0.53 0 0 1 213.98631607055665,85.24111541748047 z" fill="#231f20" id="svg_12"/><path d="M256.43631607055664,43.87111541748047 c-2.44,1.75 -2,5.8 -2.18,8.41 q-0.31000000000000005,5.5 -0.37000000000000005,11 c0,2.33 6,2.77 7.1,2.14 l-1.53,9.13 l13,-4 l0.28,-10.63 s-4,-0.23 -6,-5.12 s-1.48,-12.17 -1.48,-12.17 S258.87631607055664,42.171115417480465 256.43631607055664,43.87111541748047 z" fill="#fff" id="svg_13"/><path d="M259.4563160705566,75.08111541748048 a0.51,0.51 0 0 1 -0.33000000000000007,-0.13 a0.5,0.5 0 0 1 -0.17,-0.46 l1.4100000000000001,-8.36 a10.43,10.43 0 0 1 -5.72,-0.9400000000000001 a2.15,2.15 0 0 1 -1.26,-1.8900000000000001 c0,-3.67 0.17,-7.39 0.37000000000000005,-11 c0,-0.44000000000000006 0,-0.92 0.05000000000000001,-1.4100000000000001 c0,-2.58 0.1,-5.78 2.34,-7.38 c2.51,-1.79 8.81,-1.36 9.08,-1.35 a0.51,0.51 0 0 1 0.47000000000000003,0.54 c0,0.07 -0.54,7.22 1.44,11.94 c1.8900000000000001,4.52 5.44,4.8 5.59,4.8100000000000005 a0.5,0.5 0 0 1 0.47000000000000003,0.51 L272.87631607055664,70.55111541748047 a0.52,0.52 0 0 1 -0.35000000000000003,0.47000000000000003 l-13,4 zm1.53,-10.13 a0.52,0.52 0 0 1 0.29000000000000004,0.09000000000000002 a0.47000000000000003,0.47000000000000003 0 0 1 0.2,0.49000000000000005 l-1.4,8.33 l11.85,-3.6900000000000004 l0.26,-9.83 c-1.18,-0.23 -4.24,-1.2 -6,-5.36 s-1.6300000000000001,-10.12 -1.54,-11.88 c-1.51,-0.06000000000000001 -6.09,-0.14 -7.94,1.18 h0 c-1.83,1.31 -1.8800000000000001,4.23 -1.92,6.58 c0,0.52 0,1 -0.05000000000000001,1.45 c-0.21000000000000002,3.64 -0.33000000000000007,7.34 -0.37000000000000005,11 c0,0.37000000000000005 0.25,0.7100000000000001 0.77,1 a9,9 0 0 0 5.58,0.7000000000000001 A0.47000000000000003,0.47000000000000003 0 0 1 260.98631607055665,64.95111541748047 zm-4.55,-21.08 h0 z" fill="#231f20" id="svg_14"/><path d="M253.87631607055664,71.62111541748047 c-6.6,5 -23.37,18.42 -23.37,18.42 l7.86,17.16 l6.07,-4.59 l-6.21,22.84 s28.38,21.33 42.71,12.92 c0,0 6.6,-51.63 1.82,-63 S260.4663160705566,66.62111541748047 253.87631607055664,71.62111541748047 z" fill="#279e72" id="svg_15"/><path d="M283.2163160705566,80.04111541748047 a17.21,17.21 0 0 0 -7.62,-11.49 a51,51 0 0 1 6.71,2.62 s5.11,2.27 6.14,9.89 l-4.890000000000001,-0.23 " fill="#231f20" id="svg_16"/><path d="M293.10631607055666,79.69111541748048 s-15.31,-7 -22.3,-3.24 s-20.77,50.15 -20.57,52.71 s10.51,8.64 21.62,9.83 s14.6,0.3400000000000001 16.25,-1.53 S294.87631607055664,115.29111541748046 293.87631607055664,111.19111541748046 s-3.93,-4 -3.93,-4 S297.0163160705566,83.79111541748047 293.10631607055666,79.69111541748048 z" fill="#231f20" id="svg_17"/><path d="M254.78631607055667,125.18111541748047 l-0.41000000000000003,-0.81 L243.87631607055664,103.69111541748046 l-1.45,7.33 s5.55,16.89 9.81,20.64 " fill="#231f20" id="svg_18"/><path d="M254.16631607055666,61.61111541748046 s2.73,1.94 4.43,-0.91 " fill="#fff" id="svg_19"/><path d="M256.16631607055666,62.75111541748046 a4.32,4.32 0 0 1 -2.29,-0.7300000000000001 a0.49000000000000005,0.49000000000000005 0 0 1 -0.12000000000000001,-0.6900000000000002 a0.51,0.51 0 0 1 0.7000000000000001,-0.13 a3.1,3.1 0 0 0 2.15,0.51 a2.47,2.47 0 0 0 1.56,-1.26 a0.51,0.51 0 0 1 0.6900000000000002,-0.18000000000000002 a0.5,0.5 0 0 1 0.17,0.6900000000000002 a3.4,3.4 0 0 1 -2.22,1.73 A3.55,3.55 0 0 1 256.16631607055666,62.75111541748046 z" fill="#231f20" id="svg_20"/><path d="M264.18631607055664,53.40111541748047 a5,5 0 0 1 1.19,-2.45 A7,7 0 0 1 266.81631607055664,49.40111541748047 a2.39,2.39 0 0 1 2,-0.48000000000000004 a2.25,2.25 0 0 1 1.37,1.23 a4.17,4.17 0 0 1 0.3400000000000001,1.85 a7.890000000000001,7.890000000000001 0 0 1 -4.08,6.75 l0.22000000000000003,-0.21000000000000002 " fill="#fff" id="svg_21"/><path d="M266.4563160705566,59.25111541748046 a0.5,0.5 0 0 1 -0.3400000000000001,-0.8600000000000001 l0.21000000000000002,-0.21000000000000002 a0.51,0.51 0 0 1 0.3400000000000001,-0.14 a7.41,7.41 0 0 0 3.37,-6 a3.77,3.77 0 0 0 -0.29000000000000004,-1.6400000000000001 a1.7600000000000002,1.7600000000000002 0 0 0 -1.05,-1 a1.94,1.94 0 0 0 -1.59,0.4 a6.94,6.94 0 0 0 -1.33,1.47 a4.54,4.54 0 0 0 -1.09,2.2 a0.5,0.5 0 0 1 -1,-0.08000000000000002 a5.5,5.5 0 0 1 1.29,-2.71 a7.62,7.62 0 0 1 1.54,-1.6900000000000002 a2.9,2.9 0 0 1 2.45,-0.55 a2.6900000000000004,2.6900000000000004 0 0 1 1.6800000000000002,1.5 a4.640000000000001,4.640000000000001 0 0 1 0.39000000000000007,2.07 a8.42,8.42 0 0 1 -4.35,7.18 A0.46,0.46 0 0 1 266.4563160705566,59.25111541748046 z" fill="#231f20" id="svg_22"/><path d="M274.04631607055666,64.90111541748047 a0.6400000000000001,0.6400000000000001 0 0 1 -0.5900000000000001,-0.35000000000000003 a0.6000000000000001,0.6000000000000001 0 0 1 0.15000000000000002,-0.6700000000000002 a0.5700000000000001,0.5700000000000001 0 0 1 0.6700000000000002,0 a7.39,7.39 0 0 0 4.28,-4 c2.29,-4.92 2.14,-11.91 -0.38000000000000006,-17.38 a8.81,8.81 0 0 0 -3.79,-4.48 c-1.6,-0.79 -4,-0.6000000000000001 -5,1 a0.5,0.5 0 0 1 -0.92,-0.25 c-0.1,-2.11 -2.17,-3.67 -4.11,-4 a9.9,9.9 0 0 0 -6.24,1.54 c-0.8,0.44000000000000006 -1.58,0.9400000000000001 -2.35,1.4300000000000002 a33.35,33.35 0 0 1 -3.6,2.07 a4.32,4.32 0 0 1 -3.3200000000000003,0.25 l-0.12000000000000001,-0.06000000000000001 a9.67,9.67 0 0 0 0.7400000000000001,4.59 c0.8,1.58 2.81,2.83 4.45,2.08 a0.5,0.5 0 0 1 0.6600000000000001,0.25 a0.51,0.51 0 0 1 -0.25,0.6600000000000001 c-2.17,1 -4.73,-0.51 -5.75,-2.54 s-0.8900000000000001,-4.41 -0.8,-6.33 a0.49000000000000005,0.49000000000000005 0 0 1 0.44000000000000006,-0.47000000000000003 a0.49000000000000005,0.49000000000000005 0 0 1 0.54,0.35000000000000003 a0.81,0.81 0 0 0 0.5,0.55 a3.4,3.4 0 0 0 2.49,-0.24000000000000002 a32.81,32.81 0 0 0 3.49,-2 c0.77,-0.49000000000000005 1.57,-1 2.4,-1.45 a10.81,10.81 0 0 1 6.87,-1.6600000000000001 a6,6 0 0 1 4.77,3.8200000000000003 a5.3,5.3 0 0 1 5.57,-0.48000000000000004 a9.64,9.64 0 0 1 4.25,5 c2.6500000000000004,5.73 2.8,13 0.38000000000000006,18.23 a8.26,8.26 0 0 1 -5.19,4.65 z" fill="#231f20" id="svg_23"/><path d="M260.98631607055665,65.45111541748047 a9.88,9.88 0 0 0 4.78,-2.81 s-0.5700000000000001,5.57 -5.46,6.88 z" fill="#231f20" id="svg_24"/><path d="M260.30631607055665,70.02111541748047 a0.51,0.51 0 0 1 -0.3400000000000001,-0.13 a0.56,0.56 0 0 1 -0.16000000000000003,-0.46 l0.6900000000000002,-4.06 a0.5,0.5 0 0 1 0.37000000000000005,-0.41000000000000003 a9.26,9.26 0 0 0 4.5,-2.63 a0.5,0.5 0 0 1 0.8900000000000001,0.36000000000000004 c0,0.06000000000000001 -0.6600000000000001,5.93 -5.82,7.3100000000000005 zm1.12,-4.17 l-0.49000000000000005,2.93 a7.13,7.13 0 0 0 4,-4.63 A11.76,11.76 0 0 1 261.42631607055665,65.85111541748047 z" fill="#231f20" id="svg_25"/><path d="M253.07631607055663,72.08111541748048 c6.83,2 13.76,2.38 17.63,11.48 l5,-2.27 s-3,-10 -16.83,-12.85 C258.87631607055664,68.40111541748047 255.63631607055663,68.15111541748047 253.07631607055663,72.08111541748048 z" fill="#231f20" id="svg_26"/><path d="M199.40631607055664,89.62111541748047 c-1.37,-6.36 -6.43,-31.11 -7.77,-37.66 a1.25,1.25 0 0 1 1.3,-1.5 l15.26,1 a2,2 0 0 1 1.79,1.6 l6.42,35.79 a1.1400000000000001,1.1400000000000001 0 0 1 -1,1.34 l-14.1,0.8500000000000001 A1.79,1.79 0 0 1 199.40631607055664,89.62111541748047 z" fill="#231f20" id="svg_27"/><polygon points="193.5563087463379,52.731117248535156 201.1863136291504,88.41111755371094 213.9863166809082,88.2711181640625 207.58632278442383,53.541114807128906 193.5563087463379,52.731117248535156 " fill="#fff" id="svg_28"/><path d="M201.18631607055664,88.91111541748047 a0.5,0.5 0 0 1 -0.49000000000000005,-0.4 l-7.63,-35.68 a0.52,0.52 0 0 1 0.11000000000000001,-0.43000000000000005 a0.5,0.5 0 0 1 0.41000000000000003,-0.17 l14,0.81 a0.51,0.51 0 0 1 0.46,0.41000000000000003 l6.4,34.73 a0.49000000000000005,0.49000000000000005 0 0 1 -0.1,0.41000000000000003 a0.53,0.53 0 0 1 -0.38000000000000006,0.18000000000000002 l-12.81,0.14 zm-7,-35.65 l7.4,34.64 l11.8,-0.12000000000000001 l-6.22,-33.76 z" fill="#231f20" id="svg_29"/><path d="M237.95631607055662,105.02111541748047 a30.3,30.3 0 0 1 -17.88,4.890000000000001 c-6.08,-0.41000000000000003 -11.21,-5.58 -15.3,-9.6 a170.08,170.08 0 0 1 -13.15,-15.1 c-0.78,-1 -1.4300000000000002,-2.66 -0.32000000000000006,-3.22 a3.17,3.17 0 0 1 0.8900000000000001,-4.72 c-0.35000000000000003,-0.8300000000000001 -0.7100000000000001,-2.49 -0.2,-3.33 c0,0 1,-1.51 1.1,-0.6800000000000002 a8.06,8.06 0 0 1 1.37,-4.3100000000000005 l1.87,5 c0.17,-1.09 1.77,-0.29000000000000004 2.85,1.25 s1.42,4.71 1.53,5 c0,0 15.09,18.69 20.72,17.16 a50.29,50.29 0 0 0 10.71,-4.54 " fill="#fff" id="svg_30"/><path d="M221.81631607055664,110.47111541748046 q-0.8700000000000001,0 -1.77,-0.06000000000000001 c-6.12,-0.41000000000000003 -11.22,-5.42 -15.33,-9.45 l-0.29000000000000004,-0.29000000000000004 a168.25,168.25 0 0 1 -13.19,-15.15 a4,4 0 0 1 -1,-2.92 a1.55,1.55 0 0 1 0.36000000000000004,-0.7100000000000001 a3.71,3.71 0 0 1 1,-4.83 c-0.28,-0.8700000000000001 -0.6000000000000001,-2.43 0,-3.38 a3.29,3.29 0 0 1 1,-1.08 a9.31,9.31 0 0 1 1.45,-3.93 a0.5,0.5 0 0 1 0.47000000000000003,-0.22000000000000003 a0.49000000000000005,0.49000000000000005 0 0 1 0.41000000000000003,0.32000000000000006 l1.59,4.18 l0.1,0 c0.9400000000000001,-0.23 2.21,0.8400000000000001 3,1.9300000000000002 a12.81,12.81 0 0 1 1.51,4.640000000000001 c0,0.19000000000000003 0.06000000000000001,0.33000000000000007 0.07,0.42000000000000004 c4.2,5.18 15.8,18.1 20.13,16.9 a49.75,49.75 0 0 0 10.6,-4.48 a0.49000000000000005,0.49000000000000005 0 0 1 0.6800000000000002,0.17 a0.51,0.51 0 0 1 -0.18000000000000002,0.6900000000000002 a51.25,51.25 0 0 1 -10.83,4.59 C215.77631607055665,99.40111541748047 201.87631607055664,82.40111541748047 200.32631607055663,80.46111541748047 a0.7500000000000001,0.7500000000000001 0 0 1 -0.07,-0.12000000000000001 a3.36,3.36 0 0 1 -0.14,-0.6600000000000001 A12.43,12.43 0 0 0 198.77631607055665,75.40111541748047 c-0.81,-1.1400000000000001 -1.73,-1.6 -1.94,-1.53 a0.55,0.55 0 0 1 -0.44000000000000006,0.46 a0.48000000000000004,0.48000000000000004 0 0 1 -0.52,-0.29000000000000004 l-1.5,-4 a6.3,6.3 0 0 0 -0.78,3.1 h0 a0.5,0.5 0 0 1 -0.7600000000000001,0.47000000000000003 a3.63,3.63 0 0 0 -0.42000000000000004,0.53 a4.09,4.09 0 0 0 0.24000000000000002,2.8600000000000003 a0.5,0.5 0 0 1 -0.23,0.6400000000000001 a2.52,2.52 0 0 0 -1.27,1.8 a2.49,2.49 0 0 0 0.52,2.13 a0.49000000000000005,0.49000000000000005 0 0 1 0.12000000000000001,0.43000000000000005 a0.52,0.52 0 0 1 -0.26,0.35000000000000003 a0.54,0.54 0 0 0 -0.30000000000000004,0.39000000000000007 a3.07,3.07 0 0 0 0.78,2.08 a169.64,169.64 0 0 0 13.11,15.06 l0.29000000000000004,0.29000000000000004 c4,3.91 9,8.77 14.69,9.16 c9.74,0.6600000000000001 17.48,-4.74 17.56,-4.79 a0.5,0.5 0 1 1 0.5800000000000001,0.81 A30.73,30.73 0 0 1 221.81631607055664,110.47111541748046 z" fill="#231f20" id="svg_31"/><path d="M219.47631607055663,80.24111541748047 s-6.48,-6.13 -7.45,-5.09 s1.6,3.84 3,5.44 s3,3.6900000000000004 3,3.6900000000000004 " fill="#fff" id="svg_32"/><path d="M218.01631607055663,84.78111541748046 a0.51,0.51 0 0 1 -0.4,-0.2 s-1.61,-2.09 -3,-3.66 l-0.29000000000000004,-0.3400000000000001 c-1.7400000000000002,-2 -3.91,-4.46 -2.6900000000000004,-5.77 a0.9400000000000001,0.9400000000000001 0 0 1 0.6500000000000001,-0.28 h0 c1.75,0 6.54,4.45 7.48,5.35 a0.5,0.5 0 1 1 -0.6800000000000002,0.7200000000000001 c-3,-2.88 -6.16,-5.21 -6.8100000000000005,-5.06 c-0.54,0.6000000000000001 1.87,3.34 2.77,4.38 l0.30000000000000004,0.3400000000000001 c1.3900000000000001,1.6 3,3.6900000000000004 3,3.72 a0.5,0.5 0 0 1 -0.09000000000000002,0.7000000000000001 A0.49000000000000005,0.49000000000000005 0 0 1 218.01631607055663,84.78111541748046 z" fill="#231f20" id="svg_33"/><path d="M243.87631607055664,103.69111541748046 s8,-7.51 12.11,-10.58 " fill="#fff" id="svg_34"/><path d="M243.87631607055664,104.19111541748046 a0.52,0.52 0 0 1 -0.36000000000000004,-0.16000000000000003 a0.5,0.5 0 0 1 0,-0.7100000000000001 c0.08000000000000002,-0.07 8.09,-7.5600000000000005 12.15,-10.61 a0.51,0.51 0 0 1 0.7000000000000001,0.1 a0.5,0.5 0 0 1 -0.1,0.7000000000000001 c-4,3 -12,10.47 -12.07,10.54 A0.48000000000000004,0.48000000000000004 0 0 1 243.87631607055664,104.19111541748046 z" fill="#231f20" id="svg_35"/><path d="M259.2063160705566,129.22111541748046 h-0.07 a0.51,0.51 0 0 1 -0.43000000000000005,-0.56 c0.09000000000000002,-0.7000000000000001 2.25,-17.09 6.11,-21.51 s22.58,-0.3400000000000001 23.37,-0.16000000000000003 a0.5,0.5 0 0 1 -0.22000000000000003,1 c-5.23,-1.19 -19.43,-3.55 -22.4,-0.16000000000000003 c-3.67,4.2 -5.85,20.82 -5.87,21 A0.5,0.5 0 0 1 259.2063160705566,129.22111541748046 z" fill="#fff" id="svg_36"/><path d="M270.87631607055664,102.00111541748046 a0.45,0.45 0 0 1 -0.16000000000000003,0 a0.49000000000000005,0.49000000000000005 0 0 1 -0.32000000000000006,-0.6200000000000001 a130.78,130.78 0 0 0 3.84,-13.64 a7.39,7.39 0 0 0 -0.06000000000000001,-4.49 a2.88,2.88 0 0 0 -1.8,-1.52 a1.71,1.71 0 0 0 -1.46,0.19000000000000003 a0.5,0.5 0 0 1 -0.6900000000000002,-0.12000000000000001 a0.51,0.51 0 0 1 0.13,-0.7000000000000001 a2.7,2.7 0 0 1 2.2800000000000002,-0.33000000000000007 a3.87,3.87 0 0 1 2.45,2.07 a8.24,8.24 0 0 1 0.13,5.1 a130.61,130.61 0 0 1 -3.87,13.74 A0.5,0.5 0 0 1 270.87631607055664,102.00111541748046 z" fill="#fff" id="svg_37"/><circle cx="282.536319732666" cy="120.64112091064453" r="1.7300000190734863" fill="#fff" id="svg_38"/><path d="M203.81631607055664,74.46111541748047 c-0.22000000000000003,-0.46 -0.45,-0.91 -0.6700000000000002,-1.35 c-0.7100000000000001,-1.44 -1.4100000000000001,-2.88 -2.13,-4.3100000000000005 a3.49,3.49 0 0 1 -0.43000000000000005,-1.6700000000000002 a3.24,3.24 0 0 1 6.37,-0.7500000000000001 a3.14,3.14 0 0 1 -0.24000000000000002,2.25 l-1.79,3.6 L203.87631607055664,74.40111541748047 A0.41000000000000003,0.41000000000000003 0 0 1 203.81631607055664,74.46111541748047 zm0,-5.66 a1.62,1.62 0 0 0 0,-3.24 a1.62,1.62 0 0 0 0,3.24 z" fill="#279e72" id="svg_39"/><path d="M259.74631607055665,157.00111541748046 a0.5,0.5 0 0 1 -0.26,-0.92 c0.06000000000000001,0 6.35,-4.06 7.39,-11.36 a0.51,0.51 0 0 1 0.5700000000000001,-0.42000000000000004 a0.5,0.5 0 0 1 0.42000000000000004,0.56 c-1.11,7.77 -7.58,11.9 -7.86,12.07 A0.48000000000000004,0.48000000000000004 0 0 1 259.74631607055665,157.00111541748046 z" fill="#fff" id="svg_40"/><path d="M164.39631607055665,213.96111541748047 a1,1 0 0 1 0,-2 a74.93,74.93 0 0 0 9.81,-1 a1,1 0 0 1 0.33000000000000007,2 a77.17,77.17 0 0 1 -10.08,1 zm-10,-0.41000000000000003 h-0.13 a33.25,33.25 0 0 1 -9.93,-2.63 a1,1 0 0 1 -0.48000000000000004,-1.33 a1,1 0 0 1 1.33,-0.48000000000000004 a31.6,31.6 0 0 0 9.33,2.46 a1,1 0 0 1 -0.12000000000000001,2 zM186.87631607055664,210.46111541748047 a0.9,0.9 0 0 1 -0.52,-0.15000000000000002 c-0.45,-0.27 -1.05,-0.25 -2.06,0.08000000000000002 a1,1 0 1 1 -0.6200000000000001,-1.9 a4.22,4.22 0 0 1 3.73,0.12000000000000001 a1,1 0 0 1 0.32000000000000006,1.3800000000000001 A1,1 0 0 1 186.87631607055664,210.46111541748047 zm-48.44,-6.71 a1,1 0 0 1 -1,-0.7200000000000001 a38.49,38.49 0 0 1 -1.13,-7.59 c-0.07,-0.8300000000000001 -0.13,-1.6600000000000001 -0.22000000000000003,-2.49 a1,1 0 0 1 2,-0.2 c0.09000000000000002,0.8400000000000001 0.16000000000000003,1.6900000000000002 0.23,2.5300000000000002 a36,36 0 0 0 1.05,7.19 a1,1 0 0 1 -0.6800000000000002,1.24 A1,1 0 0 1 138.44631607055663,203.75111541748046 zm-66.72,-9.53 a24,24 0 0 1 -4,-0.33000000000000007 a1,1 0 1 1 0.3400000000000001,-2 a25.47,25.47 0 0 0 9.55,-0.36000000000000004 a1,1 0 1 1 0.43000000000000005,2 A29.17,29.17 0 0 1 71.72631607055663,194.22111541748046 zm15.51,-3.94 A1,1 0 0 1 86.87631607055664,188.40111541748047 c1.34,-0.5800000000000001 2.67,-1.18 4,-1.79 c1.59,-0.7300000000000001 3.24,-1.48 4.88,-2.18 l0.28,-0.12000000000000001 a1,1 0 1 1 0.77,1.85 l-0.26,0.11000000000000001 c-1.62,0.6900000000000002 -3.26,1.4300000000000002 -4.84,2.16 c-1.33,0.6100000000000001 -2.67,1.22 -4,1.81 A1.1,1.1 0 0 1 87.23631607055664,190.28111541748046 zm-28.23,-0.6600000000000001 a1,1 0 0 1 -0.7100000000000001,-0.29000000000000004 a21.17,21.17 0 0 1 -5,-9.14 a1,1 0 0 1 0.6800000000000002,-1.24 a1,1 0 0 1 1.24,0.6900000000000002 a19.22,19.22 0 0 0 4.46,8.28 a1,1 0 0 1 -0.7100000000000001,1.7000000000000002 zm75.08,-5.14 a1,1 0 0 1 -0.78,-0.38000000000000006 q-0.30000000000000004,-0.37000000000000005 -0.6600000000000001,-0.7500000000000001 a12.32,12.32 0 0 0 -7.34,-3.37 a1,1 0 1 1 0.27,-2 a14.23,14.23 0 0 1 8.5,4 c0.28,0.30000000000000004 0.55,0.6000000000000001 0.8,0.91 a1,1 0 0 1 -0.79,1.62 zm-28.31,-1.6500000000000001 a1,1 0 0 1 -0.28,-2 a93.76,93.76 0 0 1 9.73,-2.36 l0.27,1 l0.18000000000000002,1 a93.51,93.51 0 0 0 -9.61,2.3200000000000003 A1,1 0 0 1 105.77631607055665,182.83111541748048 zM53.17631607055664,171.02111541748047 h-0.06000000000000001 a1,1 0 0 1 -0.9400000000000001,-1.06 a19.29,19.29 0 0 1 2.91,-9.77 l0.13,-0.2 a1,1 0 0 1 1.3900000000000001,-0.24000000000000002 a1,1 0 0 1 0.25,1.4 l-0.12000000000000001,0.16000000000000003 a17.46,17.46 0 0 0 -2.56,8.77 A1,1 0 0 1 53.17631607055664,171.02111541748047 zm10.42,-15.89 a1,1 0 0 1 -0.53,-1.85 l1.57,-1 l7,-4.22 a1,1 0 1 1 1,1.71 l-7,4.23 l-1.54,0.9400000000000001 A1,1 0 0 1 63.59631607055664,155.13111541748046 zm17.09,-10.39 a1,1 0 0 1 -0.56,-1.84 a23.8,23.8 0 0 0 6.17,-5.46 a12.36,12.36 0 0 0 0.7200000000000001,-1.06 a1,1 0 0 1 1.3800000000000001,-0.33000000000000007 a1,1 0 0 1 0.33000000000000007,1.37 a12.48,12.48 0 0 1 -0.8300000000000001,1.22 a25.72,25.72 0 0 1 -6.66,5.93 A1,1 0 0 1 80.68631607055664,144.74111541748047 zm8.67,-16.42 a1,1 0 0 1 -1,-0.6800000000000002 a7.66,7.66 0 0 0 -0.51,-1.17 c-1.36,-2.49 -4.09,-4 -6,-4.95 a1,1 0 1 1 0.8600000000000001,-1.8 c2.18,1.05 5.28,2.79 6.91,5.79 a9.5,9.5 0 0 1 0.6600000000000001,1.49 a1,1 0 0 1 -0.6300000000000001,1.27 A1.25,1.25 0 0 1 89.35631607055664,128.32111541748046 zM72.87631607055664,118.21111541748047 a1.07,1.07 0 0 1 -0.25,0 a53.79,53.79 0 0 0 -9.67,-1.61 a1,1 0 0 1 0.15000000000000002,-2 a54.29,54.29 0 0 1 10,1.6700000000000002 a1,1 0 0 1 -0.26,2 z" fill="#d1d3d4" id="svg_41"/><path d="M140.44631607055663,83.40111541748047 h-0.07 a0.47000000000000003,0.47000000000000003 0 0 1 -0.39000000000000007,-0.52 L148.15631607055664,22.40111541748047 a0.46,0.46 0 0 1 0.43000000000000005,-0.4 l69.46,-4.08 a0.45,0.45 0 0 1 0.37000000000000005,0.15000000000000002 a0.47000000000000003,0.47000000000000003 0 0 1 0.11000000000000001,0.38000000000000006 l-4.08,26.15 a0.47000000000000003,0.47000000000000003 0 0 1 -0.53,0.38000000000000006 a0.46,0.46 0 0 1 -0.38000000000000006,-0.53 l4,-25.58 l-68.51,4 L140.87631607055664,83.02111541748047 A0.46,0.46 0 0 1 140.44631607055663,83.40111541748047 z" fill="#d1d3d4" id="svg_42"/><path d="M317.7663160705566,71.28111541748046 h0 a0.46,0.46 0 0 1 -0.42000000000000004,-0.5 l5.95,-68.14 L220.38631607055663,0.9011154174804688 l-4.85,38.81 a0.48000000000000004,0.48000000000000004 0 0 1 -0.52,0.4 a0.46,0.46 0 0 1 -0.4,-0.52 L219.52631607055665,0.40111541748046875 a0.43000000000000005,0.43000000000000005 0 0 1 0.46,-0.4 l103.78,1.7400000000000002 a0.53,0.53 0 0 1 0.3400000000000001,0.15000000000000002 a0.51,0.51 0 0 1 0.11000000000000001,0.35000000000000003 l-6,68.64 A0.47000000000000003,0.47000000000000003 0 0 1 317.7663160705566,71.28111541748046 z" fill="#d1d3d4" id="svg_43"/><path d="M41.87631607055664,107.81111541748047 l-5,-10.15 C31.546316070556642,86.89111541748046 26.27631607055664,76.09111541748047 20.87631607055664,65.40111541748047 a26.75,26.75 0 0 1 -3.22,-12.5 a24.26,24.26 0 0 1 47.77,-5.61 a23.65,23.65 0 0 1 -1.83,16.82 l-13.41,27 q-3.93,7.92 -7.85,15.86 C42.20631607055664,107.21111541748047 42.07631607055664,107.45111541748048 41.87631607055664,107.81111541748047 zM41.87631607055664,65.40111541748047 a12.14,12.14 0 1 0 -12.1,-12.14 A12.17,12.17 0 0 0 41.87631607055664,65.40111541748047 z" fill="#279e72" id="svg_44"/><path d="M100.32631607055663,78.01111541748047 l-0.11000000000000001,0 A0.45,0.45 0 0 1 99.87631607055664,77.40111541748047 l6.38,-27.4 a0.46,0.46 0 0 1 0.37000000000000005,-0.35000000000000003 l34.91,-6 a0.47000000000000003,0.47000000000000003 0 0 1 0.53,0.38000000000000006 a0.45,0.45 0 0 1 -0.37000000000000005,0.53 l-34.61,6 l-6.32,27.11 A0.47000000000000003,0.47000000000000003 0 0 1 100.32631607055663,78.01111541748047 z" fill="#d1d3d4" id="svg_45"/></g></g></svg>