<svg width="512" height="512" xmlns="http://www.w3.org/2000/svg">

 <g>
  <title>background</title>
  <rect fill="none" id="canvas_background" height="514" width="514" y="-1" x="-1"/>
 </g>
 <g>
  <title>Layer 1</title>
  <g stroke="null" id="svg_1">
   <g stroke="null" id="outline">
    <path stroke="null" id="svg_2" fill="#FFFFFF" class="active-path" d="m374.53881,162.862341l0,-33.868233a8.467058,8.467058 0 0 0 -8.467058,-8.467058l-8.467058,0l0,-33.868233l-33.868233,0l0,-33.868233l8.467058,0a8.467058,8.467058 0 0 0 8.467058,-8.467058l0,-8.467058a33.868233,33.868233 0 0 0 -33.868233,-33.868233l-101.604698,0a33.868233,33.868233 0 0 0 -33.868233,33.868233l0,8.467058a8.467058,8.467058 0 0 0 8.467058,8.467058l8.467058,0l0,33.868233l-33.868233,0l0,33.868233l-8.467058,0a8.467058,8.467058 0 0 0 -8.467058,8.467058l0,33.868233a8.467058,8.467058 0 0 0 3.767841,7.044592l46.780496,31.184175l-16.680105,299.979404a8.467058,8.467058 0 0 0 8.467058,8.941213l152.407047,0a8.467058,8.467058 0 0 0 8.467058,-8.941213l-16.680105,-299.979404l46.780496,-31.184175a8.467058,8.467058 0 0 0 3.767841,-7.044592zm-33.868233,-59.269407l0,16.934116l-16.934116,0l0,-16.934116l16.934116,0zm-135.472931,-84.670582l101.604698,0a16.934116,16.934116 0 0 1 16.934116,16.934116l-135.472931,0a16.934116,16.934116 0 0 1 16.934116,-16.934116zm0,67.736465l0,-33.868233l101.604698,0l0,33.868233l-101.604698,0zm101.604698,16.934116l0,16.934116l-16.934116,0l0,-16.934116l16.934116,0zm-33.868233,0l0,16.934116l-33.868233,0l0,-16.934116l33.868233,0zm-50.802349,0l0,16.934116l-16.934116,0l0,-16.934116l16.934116,0zm-50.802349,0l16.934116,0l0,16.934116l-16.934116,0l0,-16.934116zm101.604698,389.484676l-33.868233,0l0,-50.802349l33.868233,0l0,50.802349zm16.934116,0l0,-67.736465l-67.736465,0l0,67.736465l-33.38561,0l4.699217,-84.670582l125.109252,0l4.699217,84.670582l-33.38561,0zm23.038865,-186.27528l4.699217,84.670582l-123.212631,0l4.699217,-84.670582l113.814196,0zm-112.865886,-16.934116l4.699217,-84.670582l102.51914,0l4.699217,84.670582l-111.917575,0zm157.563486,-135.472931l-50.802349,0l0,16.934116l31.328115,0l-25.401175,16.934116l-113.45858,0l-25.401175,-16.934116l31.328115,0l0,-16.934116l-50.802349,0l0,-16.934116l203.209396,0l0,16.934116z"/>
    <path stroke="null" id="svg_3" fill="#FFFFFF" class="active-path" d="m222.131763,272.934097l67.736465,0l0,-50.802349l-67.736465,0l0,50.802349zm16.934116,-33.868233l33.868233,0l0,16.934116l-33.868233,0l0,-16.934116z"/>
    <path stroke="null" id="svg_4" fill="#FFFFFF" class="active-path" d="m289.868228,323.736446l-67.736465,0l0,50.802349l67.736465,0l0,-50.802349zm-16.934116,33.868233l-33.868233,0l0,-16.934116l33.868233,0l0,16.934116z"/>
    <path stroke="null" id="svg_5" fill="#FFFFFF" class="active-path" d="m222.131763,154.395283l16.934116,0l0,16.934116l-16.934116,0l0,-16.934116z"/>
    <path stroke="null" id="svg_6" fill="#FFFFFF" class="active-path" d="m272.934112,154.395283l16.934116,0l0,16.934116l-16.934116,0l0,-16.934116z"/>
    <path stroke="null" id="svg_7" fill="#FFFFFF" class="active-path" d="m383.005868,61.257643l42.335291,0l0,16.934116l-42.335291,0l0,-16.934116z"/>
    <path stroke="null" id="svg_8" fill="#FFFFFF" class="active-path" d="m379.04342,36.817412l33.851028,-16.925514l7.56955,15.1391l-33.851028,16.925514l-7.56955,-15.1391z"/>
    <path stroke="null" id="svg_9" fill="#FFFFFF" class="active-path" d="m379.094223,102.852134l7.56955,-15.1391l33.851028,16.925514l-7.56955,15.1391l-33.851028,-16.925514z"/>
    <path stroke="null" id="svg_10" fill="#FFFFFF" class="active-path" d="m86.658832,61.257643l42.335291,0l0,16.934116l-42.335291,0l0,-16.934116z"/>
    <path stroke="null" id="svg_11" fill="#FFFFFF" class="active-path" d="m91.298915,35.005597l7.56955,-15.1391l33.851028,16.925514l-7.56955,15.1391l-33.851028,-16.925514z"/>
    <path stroke="null" id="svg_12" fill="#FFFFFF" class="active-path" d="m91.273514,104.460739l33.851028,-16.925514l7.56955,15.1391l-33.851028,16.925514l-7.56955,-15.1391z"/>
   </g>
  </g>
 </g>
</svg>