<?xml version="1.0" encoding="utf-8"?>
<!-- Generator: Adobe Illustrator 23.0.1, SVG Export Plug-In . SVG Version: 6.00 Build 0)  -->
<svg version="1.1" id="Capa_1" xmlns="http://www.w3.org/2000/svg" xmlns:xlink="http://www.w3.org/1999/xlink" x="0px" y="0px"
	 viewBox="0 0 512 512" style="enable-background:new 0 0 512 512;" xml:space="preserve">
<style type="text/css">
	.st0{fill:#ffffff;}
</style>
<g>
	<g id="XMLID_1730_">
		<g id="XMLID_92_">
			<path id="XMLID_456_" class="st0" d="M256,220c16.5,0,30-13.5,30-30s-13.5-30-30-30s-30,13.5-30,30S239.5,220,256,220z M256,180
				c5.5,0,10,4.5,10,10s-4.5,10-10,10s-10-4.5-10-10S250.5,180,256,180z"/>
			<path id="XMLID_29_" class="st0" d="M502,74h-3.5V37.5c0-2.7-1.1-5.2-2.9-7.1L468.1,2.9C466.2,1.1,463.7,0,461,0h-41
				c-2.7,0-5.2,1.1-7.1,2.9l-27.5,27.5c-1.9,1.9-2.9,4.4-2.9,7.1V74H379c-5.5,0-10,4.5-10,10v78h-25.6L266,112.5l-20,0L168.6,162
				H143V84c0-5.5-4.5-10-10-10h-3.5V37.5c0-2.7-1.1-5.2-2.9-7.1L99.1,2.9C97.2,1.1,94.7,0,92,0H51c-2.7,0-5.2,1.1-7.1,2.9L16.4,30.4
				c-1.9,1.9-2.9,4.4-2.9,7.1V74H10C4.5,74,0,78.5,0,84v418c0,5.5,4.5,10,10,10h492c5.5,0,10-4.5,10-10V84C512,78.5,507.5,74,502,74
				z M55.1,20h32.7l17,17H38.1L55.1,20z M33.5,57h76v17h-76V57z M81.5,492h-20v-50c0-5.5,4.5-10,10-10s10,4.5,10,10V492z M123,492
				h-21.5v-50c0-16.5-13.5-30-30-30s-30,13.5-30,30v50H20V384h103V492z M123,364H20v-97.9h103V364z M61.5,246v-22.1
				c0-5.5,4.5-10,10-10s10,4.5,10,10V246H61.5z M123,246.1h-21.5v-22.2c0-16.5-13.5-30-30-30s-30,13.5-30,30v22.2H20V94h103V246.1z
				 M224,492h-24v-48c0-6.6,5.4-12,12-12s12,5.4,12,12V492z M268,492h-24v-48c0-6.6,5.4-12,12-12s12,5.4,12,12V492z M312,492h-24
				v-48c0-6.6,5.4-12,12-12s12,5.4,12,12V492z M369,492h-37v-48c0-17.6-14.4-32-32-32c-8.5,0-16.3,3.4-22,8.8
				c-5.7-5.4-13.5-8.8-22-8.8s-16.3,3.4-22,8.8c-5.7-5.4-13.5-8.8-22-8.8c-17.6,0-32,14.4-32,32v48h-37V384h226V492z M200,364v-40
				c0-6.6,5.4-12,12-12s12,5.4,12,12v40H200z M244,364v-40c0-6.6,5.4-12,12-12s12,5.4,12,12v40H244z M288,364v-40
				c0-6.6,5.4-12,12-12s12,5.4,12,12v40H288z M369,246h-67.9c-5.5,0-10,4.5-10,10s4.5,10,10,10H369v98h-37v-40c0-17.6-14.4-32-32-32
				c-8.5,0-16.3,3.4-22,8.8c-5.7-5.4-13.5-8.8-22-8.8s-16.3,3.4-22,8.8c-5.7-5.4-13.5-8.8-22-8.8c-17.6,0-32,14.4-32,32v40h-37v-98
				h68.1c5.5,0,10-4.5,10-10s-4.5-10-10-10H143v-64h28.5c1.9,0,3.8-0.5,5.4-1.6l79.1-50.6l79.1,50.6c1.6,1,3.5,1.6,5.4,1.6H369V246z
				 M424.1,20h32.7l17,17h-66.7L424.1,20z M402.5,57h76v17h-76V57z M450.5,492h-20v-50c0-5.5,4.5-10,10-10s10,4.5,10,10V492z
				 M492,492h-21.5v-50c0-16.5-13.5-30-30-30s-30,13.5-30,30v50H389V384h103V492z M492,364H389v-97.9h103V364z M430.5,246v-22.1
				c0-5.5,4.5-10,10-10s10,4.5,10,10V246H430.5z M492,246.1h-21.5v-22.2c0-16.5-13.5-30-30-30s-30,13.5-30,30v22.2H389V94h103V246.1
				z"/>
			<path id="XMLID_867_" class="st0" d="M440.5,174c16.5,0,30-13.5,30-30s-13.5-30-30-30s-30,13.5-30,30S424,174,440.5,174z
				 M440.5,134c5.5,0,10,4.5,10,10s-4.5,10-10,10s-10-4.5-10-10S435,134,440.5,134z"/>
			<path id="XMLID_950_" class="st0" d="M437.1,287c-5.5,0-10,4.5-10,10v36c0,5.5,4.5,10,10,10s10-4.5,10-10v-36
				C447.1,291.5,442.6,287,437.1,287z"/>
			<path id="XMLID_956_" class="st0" d="M71.5,174c16.5,0,30-13.5,30-30s-13.5-30-30-30s-30,13.5-30,30S55,174,71.5,174z M71.5,134
				c5.5,0,10,4.5,10,10s-4.5,10-10,10s-10-4.5-10-10S66,134,71.5,134z"/>
			<path id="XMLID_957_" class="st0" d="M74.9,287c-5.5,0-10,4.5-10,10v36c0,5.5,4.5,10,10,10s10-4.5,10-10v-36
				C84.9,291.5,80.4,287,74.9,287z"/>
			<path id="XMLID_958_" class="st0" d="M256.1,246c-2.6,0-5.2,1.1-7.1,2.9c-1.9,1.9-2.9,4.4-2.9,7.1s1.1,5.2,2.9,7.1
				c1.9,1.9,4.4,2.9,7.1,2.9c2.6,0,5.2-1.1,7.1-2.9c1.9-1.9,2.9-4.5,2.9-7.1s-1.1-5.2-2.9-7.1C261.3,247,258.7,246,256.1,246
				L256.1,246z"/>
		</g>
	</g>
</g>
</svg>
