<?xml version="1.0"?>
<svg xmlns="http://www.w3.org/2000/svg" height="512px" viewBox="0 0 64 64" width="512px" class=""><g><g id="outline"><path d="m46 21v-4a1 1 0 0 0 -1-1h-1v-4h-4v-4h1a1 1 0 0 0 1-1v-1a4 4 0 0 0 -4-4h-12a4 4 0 0 0 -4 4v1a1 1 0 0 0 1 1h1v4h-4v4h-1a1 1 0 0 0 -1 1v4a1 1 0 0 0 .445.832l5.525 3.683-1.97 35.429a1 1 0 0 0 1 1.056h18a1 1 0 0 0 1-1.056l-1.97-35.429 5.525-3.683a1 1 0 0 0 .445-.832zm-4-7v2h-2v-2zm-16-10h12a2 2 0 0 1 2 2h-16a2 2 0 0 1 2-2zm0 8v-4h12v4zm12 2v2h-2v-2zm-4 0v2h-4v-2zm-6 0v2h-2v-2zm-6 0h2v2h-2zm12 46h-4v-6h4zm2 0v-8h-8v8h-3.943l.555-10h14.776l.555 10zm2.721-22 .555 10h-14.552l.555-10zm-13.33-2 .555-10h12.108l.555 10zm18.609-16h-6v2h3.7l-3 2h-13.4l-3-2h3.7v-2h-6v-2h24z" data-original="#000000" class="active-path" data-old_color="#000000" fill="#FFFFFF"/><path d="m28 34h8v-6h-8zm2-4h4v2h-4z" data-original="#000000" class="active-path" data-old_color="#000000" fill="#FFFFFF"/><path d="m36 40h-8v6h8zm-2 4h-4v-2h4z" data-original="#000000" class="active-path" data-old_color="#000000" fill="#FFFFFF"/><path d="m28 20h2v2h-2z" data-original="#000000" class="active-path" data-old_color="#000000" fill="#FFFFFF"/><path d="m34 20h2v2h-2z" data-original="#000000" class="active-path" data-old_color="#000000" fill="#FFFFFF"/><path d="m47 9h5v2h-5z" data-original="#000000" class="active-path" data-old_color="#000000" fill="#FFFFFF"/><path d="m46.764 5h4.472v2h-4.472z" transform="matrix(.894 -.447 .447 .894 2.49 22.547)" data-original="#000000" class="active-path" data-old_color="#000000" fill="#FFFFFF"/><path d="m48 11.764h2v4.472h-2z" transform="matrix(.447 -.894 .894 .447 14.565 51.566)" data-original="#000000" class="active-path" data-old_color="#000000" fill="#FFFFFF"/><path d="m12 9h5v2h-5z" data-original="#000000" class="active-path" data-old_color="#000000" fill="#FFFFFF"/><path d="m14 3.764h2v4.472h-2z" transform="matrix(.447 -.894 .894 .447 2.925 16.733)" data-original="#000000" class="active-path" data-old_color="#000000" fill="#FFFFFF"/><path d="m12.764 13h4.472v2h-4.472z" transform="matrix(.894 -.447 .447 .894 -4.677 8.186)" data-original="#000000" class="active-path" data-old_color="#000000" fill="#FFFFFF"/></g></g> </svg>
