<svg xmlns="http://www.w3.org/2000/svg" height="277" width="384" style=""><rect id="backgroundrect" width="100%" height="100%" x="0" y="0" fill="none" stroke="none"/> <g class="currentLayer" style=""><title>Layer 1</title><g id="svg_1" class=""><path d="m368 154.667969h-352c-8.832031 0-16-7.167969-16-16s7.167969-16 16-16h352c8.832031 0 16 7.167969 16 16s-7.167969 16-16 16zm0 0" data-original="#000000" class="active-path" data-old_color="#000000" fill="#FFFFFF" id="svg_2"/><path d="m368 32h-352c-8.832031 0-16-7.167969-16-16s7.167969-16 16-16h352c8.832031 0 16 7.167969 16 16s-7.167969 16-16 16zm0 0" data-original="#000000" class="active-path" data-old_color="#000000" fill="#FFFFFF" id="svg_3"/><path d="m368 277.332031h-352c-8.832031 0-16-7.167969-16-16s7.167969-16 16-16h352c8.832031 0 16 7.167969 16 16s-7.167969 16-16 16zm0 0" data-original="#000000" class="active-path" data-old_color="#000000" fill="#FFFFFF" id="svg_4"/></g></g></svg>